<?xml version="1.0" standalone="no"?>
<!DOCTYPE svg PUBLIC "-//W3C//DTD SVG 1.1//EN" "http://www.w3.org/Graphics/SVG/1.1/DTD/svg11.dtd" >
<svg xmlns="http://www.w3.org/2000/svg">
<metadata>
This is a custom SVG webfont generated by Font Squirrel.
Copyright   : r c Neil SummerourPositype wwwpositypecom
</metadata>
<defs>
<font id="SneakersMediumRegular" horiz-adv-x="652" >
<font-face units-per-em="1000" ascent="800" descent="-200" />
<missing-glyph horiz-adv-x="250" />
<glyph unicode=" "  horiz-adv-x="250" />
<glyph unicode="&#x09;" horiz-adv-x="250" />
<glyph unicode="&#xa0;" horiz-adv-x="250" />
<glyph unicode="!" horiz-adv-x="335" d="M299 563l-39 -338q0 -16 -10.5 -26.5t-26.5 -10.5h-111q-15 0 -26 10.5t-11 26.5l-39 338q0 15 11 26t27 11h188q16 0 26.5 -11t10.5 -26zM256 38q0 -16 -11 -27t-27 -11h-101q-15 0 -26 11t-11 27v62q0 16 11 27t26 11h101q16 0 27 -11t11 -27v-62z" />
<glyph unicode="&#x22;" horiz-adv-x="453" d="M417 563l-36 -188q0 -16 -11 -26.5t-27 -10.5h-25q-15 0 -26 10.5t-11 26.5l-37 188q0 15 11 26t27 11h98q16 0 26.5 -11t10.5 -26zM209 563l-37 -188q0 -16 -10.5 -26.5t-26.5 -10.5h-25q-16 0 -27 10.5t-11 26.5l-36 188q0 15 11 26t27 11h97q16 0 27 -11t11 -26z" />
<glyph unicode="#" horiz-adv-x="692" d="M656 126q0 -16 -11 -26.5t-26 -10.5h-52v-51q0 -16 -10.5 -27t-26.5 -11h-69q-16 0 -26.5 11t-10.5 27v51h-156v-51q0 -16 -10.5 -27t-26.5 -11h-69q-16 0 -26.5 11t-10.5 27v51h-51q-16 0 -27 10.5t-11 26.5v69q0 16 11 26.5t27 10.5h51v156h-51q-16 0 -27 10.5 t-11 26.5v69q0 16 11 26.5t27 10.5h51v52q0 15 10.5 26t26.5 11h69q16 0 26.5 -11t10.5 -26v-52h156v52q0 15 10.5 26t26.5 11h69q16 0 26.5 -11t10.5 -26v-52h52q15 0 26 -10.5t11 -26.5v-69q0 -16 -11 -26.5t-26 -10.5h-52v-156h52q15 0 26 -10.5t11 -26.5v-69zM424 232 v156h-156v-156h156z" />
<glyph unicode="$" horiz-adv-x="547" d="M511 131q0 -52 -50 -88.5t-120 -36.5h-24v-27q0 -14 -8.5 -24.5t-20.5 -10.5h-29q-12 0 -20.5 10.5t-8.5 24.5v27h-121q-15 0 -25 8.5t-10 20.5v29q0 12 10 20.5t25 8.5h127q26 0 44.5 21t18.5 51v20q0 30 -18.5 50.5t-44.5 20.5h-30q-70 0 -120 36.5t-50 88.5v88 q0 52 50 88.5t120 36.5h24v27q0 14 8.5 24.5t20.5 10.5h29q12 0 20.5 -10.5t8.5 -24.5v-27h121q15 0 25.5 -8.5t10.5 -20.5v-29q0 -12 -10.5 -20.5t-25.5 -8.5h-127q-26 0 -44 -21t-18 -51v-20q0 -30 18 -50.5t44 -20.5h30q70 0 120 -36.5t50 -88.5v-88z" />
<glyph unicode="%" horiz-adv-x="1078" d="M1042 125q0 -52 -49.5 -88.5t-119.5 -36.5h-66q-70 0 -120 36.5t-50 88.5v133q0 52 50 88.5t120 36.5h66q70 0 119.5 -36.5t49.5 -88.5v-133zM799 600l-395 -600q-10 -16 -28 -26.5t-34 -10.5h-50q-16 0 -19.5 10.5t6.5 26.5l395 600q11 16 28.5 27t33.5 11h50 q16 0 19.5 -11t-6.5 -27zM441 342q0 -52 -50 -88.5t-120 -36.5h-65q-70 0 -120 36.5t-50 88.5v133q0 52 50 88.5t120 36.5h65q70 0 120 -36.5t50 -88.5v-133zM923 158v67q0 29 -18.5 50t-44.5 21h-35q-26 0 -44.5 -21t-18.5 -50v-67q0 -29 18.5 -49.5t44.5 -20.5v-1h35v1 q26 0 44.5 20.5t18.5 49.5zM321 375v67q0 29 -18 50t-44 21h-36q-26 0 -44 -21t-18 -50v-67q0 -29 18 -50t44 -21h36q26 0 44 21t18 50z" />
<glyph unicode="&#x26;" horiz-adv-x="766" d="M751 200q0 -16 -11 -26.5t-27 -10.5h-52v-63q0 -41 -40 -70.5t-96 -29.5h-353q-56 0 -96 29.5t-40 70.5v75q0 52 50 88.5t120 36.5q-70 0 -120 36.5t-50 88.5v75q0 41 40 70.5t96 29.5h353q56 0 96 -29.5t40 -70.5v-58q0 -16 -11 -27t-26 -11h-175q-16 0 -27 11t-11 27 q0 29 -18 50t-44 21t-44.5 -21t-18.5 -50v-86h19q15 0 26 -11t11 -26v-38q0 -15 -11 -26t-26 -11h-19v-86q0 -29 18.5 -49.5t44.5 -20.5t44 20.5t18 49.5v80q0 15 11 26t27 11h264q16 0 27 -11t11 -26v-38z" />
<glyph unicode="'" horiz-adv-x="245" d="M209 563l-37 -188q0 -16 -10.5 -26.5t-26.5 -10.5h-25q-16 0 -27 10.5t-11 26.5l-36 188q0 15 11 26t27 11h97q16 0 27 -11t11 -26z" />
<glyph unicode="(" horiz-adv-x="416" d="M401 -133q0 -12 -10.5 -20.5t-25.5 -8.5h-90q-70 0 -120 36.5t-50 88.5v700q0 52 50 88.5t120 36.5h90q15 0 25.5 -8.5t10.5 -21.5v-29q0 -12 -10.5 -20.5t-25.5 -8.5h-35q-26 0 -44 -21t-18 -50v-633q0 -29 18 -50t44 -21h35q15 0 25.5 -8.5t10.5 -20.5v-29z" />
<glyph unicode=")" horiz-adv-x="416" d="M311 -37q0 -52 -50 -88.5t-120 -36.5h-91q-14 0 -24.5 8.5t-10.5 20.5v29q0 12 10.5 20.5t24.5 8.5h36q26 0 44 21t18 50v633q0 29 -18 50t-44 21h-36q-14 0 -24.5 8.5t-10.5 20.5v29q0 13 10.5 21.5t24.5 8.5h91q70 0 120 -36.5t50 -88.5v-700z" />
<glyph unicode="*" horiz-adv-x="554" d="M517 394q5 -14 -2.5 -28.5t-21.5 -18.5l-138 -10l106 -89q9 -12 6.5 -27.5t-15.5 -24.5l-71 -51q-12 -10 -27.5 -7.5t-24.5 15.5l-52 128l-52 -128q-9 -13 -24 -15.5t-28 7.5l-71 51q-13 9 -15 24.5t7 27.5l105 89l-137 10q-15 4 -22 18.5t-2 28.5l27 84q5 14 18.5 21 t28.5 3l117 -73l-33 134q0 15 11 26t26 11h88q16 0 26.5 -11t10.5 -26l-33 -134l117 73q15 4 29 -3t19 -21z" />
<glyph unicode="+" horiz-adv-x="497" d="M461 266q0 -16 -11 -27t-26 -11h-104v-103q0 -16 -10.5 -26.5t-26.5 -10.5h-69q-16 0 -26.5 10.5t-10.5 26.5v103h-103q-16 0 -27 11t-11 27v68q0 16 11 27t27 11h103v103q0 16 10.5 27t26.5 11h69q16 0 26.5 -11t10.5 -27v-103h104q15 0 26 -11t11 -27v-68z" />
<glyph unicode="," horiz-adv-x="247" d="M211 -65q0 -14 -8.5 -24.5t-20.5 -10.5h-29q-12 0 -20.5 10.5t-8.5 24.5v3q0 22 -16.5 40.5t-39.5 21.5q-14 2 -23 13t-9 25v62q0 16 11 27t27 11h100q15 0 26 -11t11 -27v-165z" />
<glyph unicode="-" horiz-adv-x="497" d="M461 266q0 -16 -11 -27t-26 -11h-350q-16 0 -27 11t-11 27v68q0 16 11 27t27 11h350q15 0 26 -11t11 -27v-68z" />
<glyph unicode="." horiz-adv-x="247" d="M211 38q0 -16 -11 -27t-26 -11h-100q-16 0 -27 11t-11 27v62q0 16 11 27t27 11h100q15 0 26 -11t11 -27v-62z" />
<glyph unicode="/" horiz-adv-x="421" d="M405 712l-206 -774q-5 -16 -18.5 -27t-29.5 -11h-107q-16 0 -24 11t-4 27l206 774q5 16 18.5 27t29.5 11h107q16 0 24 -11t4 -27z" />
<glyph unicode="0" horiz-adv-x="635" d="M559 100q0 -41 -40 -70.5t-96 -29.5h-251q-56 0 -96 29.5t-40 70.5v400q0 41 40 70.5t96 29.5h251q56 0 96 -29.5t40 -70.5v-400zM380 158v284q0 29 -18.5 50t-44.5 21t-44 -21t-18 -50v-284q0 -29 18 -49.5t44 -20.5t44.5 20.5t18.5 49.5z" />
<glyph unicode="1" horiz-adv-x="321" d="M285 30q0 -13 -8.5 -21.5t-21.5 -8.5h-160q-13 0 -21.5 8.5t-8.5 21.5v443q0 24 -14.5 40.5t-35.5 16.5v70h161q45 0 77 -23.5t32 -56.5v-490z" />
<glyph unicode="2" horiz-adv-x="569" d="M539 30q0 -13 -8.5 -21.5t-21.5 -8.5h-443q-13 0 -21.5 8.5t-8.5 21.5v97q1 61 33 102q12 16 34 28.5t62.5 29t54.5 22.5q59 27 86.5 66t13.5 105q-12 50 -51 50q-20 0 -34.5 -16t-15.5 -39q0 -13 -8.5 -21.5t-21.5 -8.5h-123q-13 0 -21.5 8.5t-8.5 21.5v45q0 33 32 56 t77 23h211q53 0 91 -12.5t57 -33.5t27 -41.5t8 -42.5q0 -108 -92 -179q-27 -21 -95.5 -54t-86.5 -54q-14 -15 -14 -40v-30h258q13 0 21.5 -9t8.5 -21v-52z" />
<glyph unicode="3" horiz-adv-x="567" d="M531 80q0 -33 -31.5 -56.5t-76.5 -23.5h-284q-45 0 -77 23.5t-32 56.5v45q0 13 8.5 21.5t21.5 8.5h121q13 0 21.5 -8.5t8.5 -21.5q1 -23 15.5 -39t34.5 -16q21 0 35.5 16.5t14.5 40.5v98q0 23 -13.5 40t-33.5 17h-83v70h80q21 0 35.5 16.5t14.5 39.5v65q0 24 -14.5 40.5 t-35.5 16.5q-20 0 -34.5 -16t-15.5 -39q0 -13 -8.5 -21.5t-21.5 -8.5h-121q-13 0 -21.5 8.5t-8.5 21.5v45q0 33 32 56.5t77 23.5h284q45 0 76.5 -23.5t31.5 -56.5v-123q0 -34 -31.5 -57t-76.5 -23q45 0 76.5 -23.5t31.5 -56.5v-5v-152z" />
<glyph unicode="4" horiz-adv-x="604" d="M579 121h-25v-91q0 -13 -8.5 -21.5t-21.5 -8.5h-160q-12 0 -21 8.5t-9 21.5v91h-70h-119q-45 0 -77 23.5t-32 56.5v324q0 13 8.5 21.5t21.5 8.5h138q13 0 21.5 -8.5t8.5 -21.5v-278q0 -23 14.5 -39.5t35.5 -16.5h50v379q0 13 9 21.5t21 8.5h160q13 0 21.5 -8.5t8.5 -21.5 v-379h25v-70z" />
<glyph unicode="5" horiz-adv-x="575" d="M539 80q0 -33 -32 -56.5t-76 -23.5h-286q-45 0 -77 23.5t-32 56.5v45q0 13 8.5 21.5t21.5 8.5h123q13 0 21.5 -8.5t8.5 -21.5q1 -23 15.5 -39t34.5 -16q21 0 35.5 16.5t14.5 40.5v129q0 23 -13.5 40t-33.5 17h-236v257q0 13 8.5 21.5t21.5 8.5h365q44 0 76 -23.5 t32 -56.5v-45q0 -13 -8.5 -21.5t-21.5 -8.5h-147q-13 0 -21.5 8.5t-8.5 21.5q-1 23 -15.5 39t-34.5 16q-21 0 -35.5 -16.5t-14.5 -40.5v-90h199q44 0 76 -23.5t32 -56.5v-223z" />
<glyph unicode="6" horiz-adv-x="612" d="M576 80q0 -33 -32 -56.5t-77 -23.5h-322q-45 0 -77 23.5t-32 56.5v440q0 33 32 56.5t77 23.5h297q45 0 77 -23.5t32 -56.5v-45q0 -13 -8.5 -21.5t-21.5 -8.5h-121q-13 0 -21.5 8.5t-8.5 21.5q-1 23 -15.5 39t-34.5 16h-14q-21 0 -35.5 -16.5t-14.5 -40.5v-90h211 q45 0 77 -23.5t32 -56.5v-223zM356 127v129q0 23 -14.5 40t-35.5 17t-35.5 -17t-14.5 -40v-129q0 -24 14.5 -40.5t35.5 -16.5t35.5 16.5t14.5 40.5z" />
<glyph unicode="7" horiz-adv-x="548" d="M533 518q0 -5 -5 -17l-221 -471q-6 -12 -20 -21t-26 -9h-180q-13 0 -16.5 8.5t2.5 21.5l215 458h-237q-13 0 -21.5 8.5t-8.5 21.5v51q0 13 8.5 21.5t21.5 8.5h458q12 0 21 -8.5t9 -21.5v-51z" />
<glyph unicode="8" horiz-adv-x="600" d="M570 80q0 -33 -32 -56.5t-77 -23.5h-322q-45 0 -77 23.5t-32 56.5v145q0 28 22.5 49t58.5 28q-29 10 -46 29.5t-17 43.5v145q0 33 31.5 56.5t76.5 23.5h288q45 0 77 -23.5t32 -56.5v-145q0 -24 -17.5 -43.5t-46.5 -29.5q36 -7 58.5 -28t22.5 -49v-145zM350 394v79 q0 24 -14.5 40.5t-35.5 16.5t-35.5 -16.5t-14.5 -40.5v-79q0 -23 14.5 -39.5t35.5 -16.5t35.5 16.5t14.5 39.5zM350 127v86q0 23 -14.5 39.5t-35.5 16.5t-35.5 -16.5t-14.5 -39.5v-86q0 -24 14.5 -40.5t35.5 -16.5t35.5 16.5t14.5 40.5z" />
<glyph unicode="9" horiz-adv-x="612" d="M576 80q0 -33 -32 -56.5t-77 -23.5h-297q-45 0 -77 23.5t-32 56.5v45q0 13 8.5 21.5t21.5 8.5h121q13 0 21.5 -8.5t8.5 -21.5q1 -23 15.5 -39t34.5 -16h14q21 0 35.5 16.5t14.5 40.5v91h-211q-45 0 -77 23t-32 57v222q0 33 32 56.5t77 23.5h322q45 0 77 -23.5t32 -56.5 v-440zM356 344v129q0 24 -14.5 40.5t-35.5 16.5t-35.5 -16.5t-14.5 -40.5v-129q0 -23 14.5 -39.5t35.5 -16.5t35.5 16.5t14.5 39.5z" />
<glyph unicode=":" horiz-adv-x="247" d="M211 269q0 -16 -11 -27t-26 -11h-100q-16 0 -27 11t-11 27v62q0 16 11 27t27 11h100q15 0 26 -11t11 -27v-62zM211 38q0 -16 -11 -27t-26 -11h-100q-16 0 -27 11t-11 27v62q0 16 11 27t27 11h100q15 0 26 -11t11 -27v-62z" />
<glyph unicode=";" horiz-adv-x="247" d="M211 269q0 -16 -11 -27t-26 -11h-100q-16 0 -27 11t-11 27v62q0 16 11 27t27 11h100q15 0 26 -11t11 -27v-62zM211 -65q0 -14 -8.5 -24.5t-20.5 -10.5h-29q-12 0 -20.5 10.5t-8.5 24.5v3q0 22 -16.5 40.5t-39.5 21.5q-14 2 -23 13t-9 25v62q0 16 11 27t27 11h100 q15 0 26 -11t11 -27v-165z" />
<glyph unicode="&#x3c;" horiz-adv-x="413" d="M370 79q10 -16 6.5 -27t-19.5 -11h-113q-16 0 -34 11t-28 27l-146 221l146 221q10 16 28 27t34 11h113q16 0 19.5 -11t-6.5 -27l-146 -221z" />
<glyph unicode="=" horiz-adv-x="497" d="M461 406q0 -16 -11 -26.5t-26 -10.5h-350q-16 0 -27 10.5t-11 26.5v57q0 15 11 26t27 11h350q15 0 26 -11t11 -26v-57zM461 138q0 -16 -11 -27t-26 -11h-350q-16 0 -27 11t-11 27v56q0 16 11 26.5t27 10.5h350q15 0 26 -10.5t11 -26.5v-56z" />
<glyph unicode="&#x3e;" horiz-adv-x="413" d="M377 300l-146 -221q-10 -16 -28 -27t-34 -11h-113q-15 0 -19 11t6 27l146 221l-146 221q-10 16 -6 27t19 11h113q16 0 34 -11t28 -27z" />
<glyph unicode="?" horiz-adv-x="597" d="M561 313q0 -52 -49.5 -88.5t-120.5 -36.5h-170q-14 0 -24.5 8.5t-10.5 20.5v29q0 12 10.5 20.5t24.5 8.5h65q26 0 44.5 21t18.5 50v96q0 29 -18.5 50t-44.5 21h-215q-14 0 -24.5 8.5t-10.5 20.5v29q0 12 10.5 20.5t24.5 8.5h320q70 0 120 -36.5t50 -88.5v-162zM374 38 q0 -16 -11 -27t-27 -11h-100q-16 0 -26.5 11t-10.5 27v62q0 16 10.5 27t26.5 11h100q16 0 27 -11t11 -27v-62z" />
<glyph unicode="@" horiz-adv-x="892" d="M856 29q0 -13 -10.5 -21t-24.5 -8h-185q-16 0 -26.5 1.5t-20 7t-13.5 9t-15 15.5t-17 18q-42 -51 -91 -51h-81q-49 0 -92.5 27t-43.5 73v225q0 46 43.5 73t92.5 27h81q13 0 23 -2.5t13 -4t14.5 -10.5t15.5 -12l29 29h76q15 0 26 -11t11 -26v-314q0 -35 36 -35q13 0 21 11 t8 24v330q0 28 -17.5 49.5t-44.5 21.5h-429q-27 0 -45 -21.5t-18 -49.5v-383q0 -28 18 -49.5t45 -21.5h436q6 0 11.5 -1t9 -3.5t6 -4.5t4 -6.5t2.5 -7t1.5 -8.5t0.5 -8.5v-9.5v-9q0 -13 -11 -21.5t-24 -8.5h-460q-61 0 -118 34t-57 91v451q0 57 54 91t116 34h481 q61 0 115 -34t54 -91v-409zM511 158v109q0 28 -18 49.5t-45 21.5t-44.5 -21.5t-17.5 -49.5v-109q0 -28 17.5 -49.5t44.5 -21.5t45 21.5t18 49.5z" />
<glyph unicode="A" horiz-adv-x="858" d="M843 28q0 -28 -28 -28h-246q-16 0 -30.5 11t-17.5 26l-18 83h-148l-19 -83q-3 -15 -17.5 -26t-29.5 -11h-247q-12 0 -19.5 9t-7.5 22q0 7 3 15l170 517q5 15 19 26t29 11h386q15 0 28.5 -11t18.5 -26l171 -517q3 -9 3 -18zM484 209l-56 254l-55 -254h111z" />
<glyph unicode="B" horiz-adv-x="777" d="M741 100q-1 -41 -40.5 -70.5t-95.5 -29.5h-531q-16 0 -27 11t-11 27v525q0 15 11 26t27 11h531q56 0 96 -29.5t40 -70.5v-118q0 -34 -20 -58t-48 -24q28 0 48 -24t20 -58v-118zM454 117v116q0 12 -16 20.5t-38 8.5h-35v76h35q22 0 38 8.5t16 20.5v116q0 13 -16 21.5 t-38 8.5h-73v-425h73q22 0 38 8.5t16 20.5z" />
<glyph unicode="C" horiz-adv-x="777" d="M741 100q0 -41 -40 -70.5t-96 -29.5h-433q-56 0 -96 29.5t-40 70.5v400q0 41 40 70.5t96 29.5h433q56 0 96 -29.5t40 -70.5v-125q0 -16 -11 -26.5t-26 -10.5h-215q-16 0 -27 10.5t-11 26.5v67q0 29 -18 50t-44 21t-44.5 -21t-18.5 -50v-284q0 -29 18.5 -49.5t44.5 -20.5 t44 20.5t18 49.5v67q0 16 11 27t27 11h215q15 0 26 -11t11 -27v-125z" />
<glyph unicode="D" horiz-adv-x="777" d="M741 100q0 -41 -40 -70.5t-96 -29.5h-531q-16 0 -27 11t-11 27v525q0 15 11 26t27 11h531q56 0 96 -29.5t40 -70.5v-400zM451 158v284q0 29 -23 50t-55 21h-47v-425h47q32 0 55 20.5t23 49.5z" />
<glyph unicode="E" horiz-adv-x="693" d="M657 37q0 -15 -10.5 -26t-25.5 -11h-549q-15 0 -25.5 11t-10.5 26v526q0 15 10.5 26t25.5 11h549q15 0 25.5 -11t10.5 -26v-50q0 -16 -10.5 -27t-25.5 -11h-281v-122h185q15 0 25.5 -11t10.5 -27v-32q0 -15 -10.5 -26t-25.5 -11h-185v-121h281q15 0 25.5 -11t10.5 -27 v-50z" />
<glyph unicode="F" horiz-adv-x="643" d="M638 513q0 -16 -11 -27t-27 -11h-275v-122h153q15 0 25.5 -11t10.5 -27v-32q0 -15 -10.5 -26t-25.5 -11h-153v-208q0 -16 -11 -27t-26 -11h-214q-16 0 -27 11t-11 27v525q0 15 11 26t27 11h526q16 0 27 -11t11 -26v-50z" />
<glyph unicode="G" horiz-adv-x="777" d="M741 38q0 -16 -11 -27t-26 -11h-532q-56 0 -96 29.5t-40 70.5v400q0 41 40 70.5t96 29.5h433q56 0 96 -29.5t40 -70.5v-62q0 -16 -11 -27t-26 -11h-215q-16 0 -27 11t-11 27v4q0 29 -18 50t-44 21t-44.5 -21t-18.5 -50v-284q0 -29 18.5 -49.5t44.5 -20.5t44 20.5t18 49.5 v105h-62v75h315q15 0 26 -11t11 -27v-262z" />
<glyph unicode="H" horiz-adv-x="790" d="M754 38q0 -16 -11 -27t-27 -11h-215q-16 0 -26.5 11t-10.5 27v225h-138v-225q0 -16 -11 -27t-26 -11h-215q-16 0 -27 11t-11 27v525q0 15 11 26t27 11h215q15 0 26 -11t11 -26v-225h138v225q0 15 10.5 26t26.5 11h215q16 0 27 -11t11 -26v-525z" />
<glyph unicode="I" horiz-adv-x="362" d="M326 38q0 -16 -11 -27t-26 -11h-215q-16 0 -27 11t-11 27v525q0 15 11 26t27 11h215q15 0 26 -11t11 -26v-525z" />
<glyph unicode="J" horiz-adv-x="777" d="M741 100q0 -41 -40 -70.5t-96 -29.5h-433q-56 0 -96 29.5t-40 70.5v125q0 16 11 27t27 11h215q15 0 26 -11t11 -27v-67q0 -29 18.5 -49.5t44.5 -20.5t44 20.5t18 49.5v405q0 15 11 26t27 11h215q15 0 26 -11t11 -26v-463z" />
<glyph unicode="K" horiz-adv-x="812" d="M807 16q-3 -16 -23 -16h-254q-26 0 -42 22q-21 28 -41.5 91t-40.5 105t-51 42h-15v-223q0 -15 -10.5 -26t-25.5 -11h-232q-15 0 -25.5 11t-10.5 26v526q0 15 10.5 26t25.5 11h232q15 0 25.5 -11t10.5 -26v-216h38l105 233q10 20 32 20h210q15 0 25.5 -11t10.5 -26v-63 q0 -15 -10.5 -26t-25.5 -11h-109q-77 0 -132 -102l-7 -14h61q114 0 162 -104q69 -152 104 -206q5 -7 3 -21z" />
<glyph unicode="L" horiz-adv-x="641" d="M626 38q0 -16 -11 -27t-26 -11h-515q-16 0 -27 11t-11 27v525q0 15 11 26t27 11h215q15 0 26 -11t11 -26v-438h263q15 0 26 -11t11 -26v-50z" />
<glyph unicode="M" horiz-adv-x="888" d="M852 38q0 -16 -11 -27t-27 -11h-214q-16 0 -26.5 11t-10.5 27v256l-104 -228h-30l-104 228v-256q0 -16 -11 -27t-26 -11h-214q-16 0 -27 11t-11 27v525q0 15 11 26t27 11h214q24 0 35 -25l121 -265l121 265q11 25 35 25h214q16 0 27 -11t11 -26v-525z" />
<glyph unicode="N" horiz-adv-x="822" d="M786 37q0 -15 -10.5 -26t-26.5 -11h-184q-20 0 -33 8q-11 7 -19 20l-175 279v-270q0 -15 -10.5 -26t-25.5 -11h-230q-15 0 -25.5 11t-10.5 26v526q0 15 10.5 26t25.5 11h189q31 0 48 -26l174 -288v277q0 15 11 26t26 11h229q16 0 26.5 -11t10.5 -26v-526z" />
<glyph unicode="O" horiz-adv-x="777" d="M741 100q0 -41 -40 -70.5t-96 -29.5h-433q-56 0 -96 29.5t-40 70.5v400q0 41 40 70.5t96 29.5h433q56 0 96 -29.5t40 -70.5v-400zM451 158v284q0 29 -18.5 50t-44.5 21t-44 -21t-18 -50v-284q0 -29 18 -49.5t44 -20.5t44.5 20.5t18.5 49.5z" />
<glyph unicode="P" horiz-adv-x="777" d="M741 325q0 -41 -40 -70.5t-96 -29.5h-279v-187q0 -16 -11 -27t-26 -11h-215q-16 0 -27 11t-11 27v525q0 15 11 26t27 11h531q56 0 96 -29.5t40 -70.5v-175zM453 330v153q0 13 -16 21.5t-39 8.5h-72v-212h72q23 0 39 8.5t16 20.5z" />
<glyph unicode="Q" horiz-adv-x="777" d="M741 100q0 -41 -40 -70.5t-96 -29.5h-54q25 -27 71 -62q6 -5 3 -22q-5 -16 -24 -16h-154q-26 0 -44 22q-34 45 -51 78h-180q-56 0 -96 29.5t-40 70.5v400q0 41 40 70.5t96 29.5h433q56 0 96 -29.5t40 -70.5v-400zM451 158v284q0 29 -18 50t-44 21t-44.5 -21t-18.5 -50 v-284q0 -29 18.5 -49.5t44.5 -20.5t44 20.5t18 49.5z" />
<glyph unicode="R" horiz-adv-x="812" d="M806 32q4 -14 -6 -23t-27 -9h-253q-11 0 -23 11.5t-12 22.5q0 33 -15 85.5t-43 98t-57 45.5v75h41q52 0 52 29v117q0 14 -15.5 21.5t-31.5 7.5h-82v-476q0 -15 -10.5 -26t-25.5 -11h-226q-15 0 -25.5 11t-10.5 26v526q0 15 10.5 26t25.5 11h550q56 0 93.5 -30t37.5 -79 v-121q0 -49 -37.5 -79.5t-93.5 -29.5h-13q51 -9 87 -39q25 -21 54 -70q44 -73 56 -120z" />
<glyph unicode="S" horiz-adv-x="801" d="M765 167v-67q0 -46 -42 -73t-90 -27h-466q-48 0 -89.5 27t-41.5 73v75q0 15 10.5 26t25.5 11h232q36 0 36 -54q0 -28 17 -49t43 -21q27 0 44 21t17 49q0 40 -21 65q-27 31 -52 35l-189 27q-163 23 -163 148v67q0 46 41.5 73t89.5 27h466q48 0 90 -27t42 -73v-75 q0 -15 -10.5 -26t-26.5 -11h-231q-36 0 -36 54q0 28 -17 49.5t-44 21.5q-26 0 -43 -21.5t-17 -49.5q0 -89 72 -100l190 -27q80 -11 121.5 -42t41.5 -106z" />
<glyph unicode="T" horiz-adv-x="745" d="M730 513q0 -16 -11 -27t-26 -11h-169v-437q0 -16 -11 -27t-27 -11h-221q-16 0 -26.5 11t-10.5 27v437h-175q-16 0 -27 11t-11 27v50q0 15 11 26t27 11h640q15 0 26 -11t11 -26v-50z" />
<glyph unicode="U" horiz-adv-x="777" d="M741 100q0 -41 -40 -70.5t-96 -29.5h-433q-56 0 -96 29.5t-40 70.5v463q0 15 11 26t27 11h215q15 0 26 -11t11 -26v-405q0 -29 18.5 -49.5t44.5 -20.5t44 20.5t18 49.5v405q0 15 11 26t27 11h215q15 0 26 -11t11 -26v-463z" />
<glyph unicode="V" horiz-adv-x="798" d="M782 563l-174 -525q-3 -16 -16 -27t-29 -11h-328q-16 0 -29.5 11t-16.5 27l-173 525q-3 15 5.5 26t23.5 11h227q16 0 29 -11t16 -26l82 -374l82 374q3 15 16 26t29 11h227q15 0 23.5 -11t5.5 -26z" />
<glyph unicode="W" horiz-adv-x="1061" d="M1044 563l-173 -525q-13 -38 -46 -38h-185q-27 0 -34 23l-76 227l-75 -227q-8 -23 -34 -23h-186q-15 0 -27.5 11t-17.5 27l-174 525q-4 15 5 26t24 11h253q15 0 28 -11t17 -26l75 -289l97 257h30l98 -257l75 289q4 15 17 26t28 11h252q15 0 24.5 -11t4.5 -26z" />
<glyph unicode="X" horiz-adv-x="806" d="M791 584q0 -12 -7 -22l-179 -262l179 -263q7 -9 7 -21q0 -16 -15 -16h-242q-25 0 -49 37l-82 130l-82 -130q-24 -37 -49 -37h-242q-15 0 -15 16q0 12 7 21l179 263l-179 262q-7 10 -7 22q0 16 15 16h242q26 0 49 -38l82 -129l82 129q23 38 49 38h242q15 0 15 -16z" />
<glyph unicode="Y" horiz-adv-x="777" d="M741 100q0 -41 -40 -70.5t-96 -29.5h-433q-56 0 -96 29.5t-40 70.5v37q0 16 11 27t27 11h215q15 0 26 -11t11 -27v-16q0 -29 18.5 -50t44.5 -21t44 21t18 50v108h-279q-56 0 -96 29.5t-40 70.5v233q0 16 11 27t27 11h215q15 0 26 -11t11 -27v-200q0 -29 18.5 -49.5 t44.5 -20.5t44 20.5t18 49.5v200q0 16 11 27t27 11h215q15 0 26 -11t11 -27v-462z" />
<glyph unicode="Z" horiz-adv-x="662" d="M626 38q0 -16 -11 -27t-26 -11h-518q-15 0 -25 11t-10 26v91q0 12 9 23l7 8l272 317h-250q-16 0 -27 10.5t-11 26.5v49q0 16 11 27t27 11h522q13 -2 21.5 -13t8.5 -24v-90q0 -13 -7 -21l-8 -9l-272 -319h250q15 0 26 -10.5t11 -26.5v-49z" />
<glyph unicode="[" horiz-adv-x="416" d="M401 -133q0 -12 -10.5 -20.5t-25.5 -8.5h-222q-16 0 -27 10.5t-11 26.5v875q0 16 11 27t27 11h222q15 0 25.5 -8.5t10.5 -21.5v-29q0 -12 -10.5 -20.5t-25.5 -8.5h-35q-26 0 -44 -21t-18 -50v-633q0 -29 18 -50t44 -21h35q15 0 25.5 -8.5t10.5 -20.5v-29z" />
<glyph unicode="\" horiz-adv-x="421" d="M405 -62q4 -16 -4 -27t-24 -11h-107q-16 0 -29.5 11t-18.5 27l-206 774q-4 16 4 27t24 11h107q16 0 29.5 -11t18.5 -27z" />
<glyph unicode="]" horiz-adv-x="416" d="M311 -125q0 -16 -11 -26.5t-27 -10.5h-223q-14 0 -24.5 8.5t-10.5 20.5v29q0 12 10.5 20.5t24.5 8.5h36q26 0 44 21t18 50v633q0 29 -18 50t-44 21h-36q-14 0 -24.5 8.5t-10.5 20.5v29q0 13 10.5 21.5t24.5 8.5h223q16 0 27 -11t11 -27v-875z" />
<glyph unicode="^" horiz-adv-x="496" d="M460 419q0 -16 -11 -19.5t-27 6.5l-174 114l-174 -114q-16 -10 -27 -6.5t-11 19.5v104q0 15 11 34q12 18 27 28l174 115l174 -115q15 -10 27 -28q11 -19 11 -34v-104z" />
<glyph unicode="_" horiz-adv-x="437" d="M401 28q0 -11 -8.5 -19.5t-18.5 -8.5h-310q-11 0 -19.5 9t-8.5 19v65q0 10 9 18.5t19 8.5h310q10 0 18.5 -8.5t8.5 -18.5v-65z" />
<glyph unicode="`" horiz-adv-x="572" d="M457 574l-4 -15q-8 -26 -47 -26h-265q-15 4 -22.5 18t-3.5 29l24 84q5 15 18.5 22.5t28.5 3.5l245 -70q15 -4 22.5 -18t3.5 -28z" />
<glyph unicode="a" d="M616 80q0 -33 -32 -56.5t-77 -23.5h-362q-45 0 -77 23.5t-32 56.5v90q0 41 40 70.5t96 29.5h204v83q0 24 -14.5 40.5t-35.5 16.5t-35.5 -16.5t-14.5 -40.5v-3q0 -13 -8.5 -21.5t-21.5 -8.5h-167q-13 0 -21.5 8.5t-8.5 21.5v50q0 33 31.5 56.5t76.5 23.5h350 q45 0 77 -23.5t32 -56.5v-320zM376 127v13v70h-100v-83q0 -24 14.5 -40.5t35.5 -16.5t35.5 16.5t14.5 40.5z" />
<glyph unicode="b" d="M616 80q0 -33 -32 -56.5t-77 -23.5h-161q-44 0 -77 23l-23 -23h-180q-13 0 -21.5 8.5t-8.5 21.5v540q0 13 8.5 21.5t21.5 8.5h180q13 0 21.5 -8.5t8.5 -21.5v-109q30 19 70 19h161q45 0 77 -23.5t32 -56.5v-320zM376 127v226q0 24 -14.5 40.5t-35.5 16.5t-35.5 -16.5 t-14.5 -40.5v-226q0 -24 14.5 -40.5t35.5 -16.5t35.5 16.5t14.5 40.5z" />
<glyph unicode="c" d="M616 80q0 -33 -32 -56.5t-77 -23.5h-362q-45 0 -77 23.5t-32 56.5v319q0 33 32 56.5t77 23.5h362q45 0 77 -23.5t32 -56.5v-45q0 -12 -8.5 -21t-21.5 -9h-180q-13 0 -21.5 9t-8.5 21q-1 23 -15.5 39t-34.5 16q-21 0 -35.5 -16.5t-14.5 -39.5v-226q0 -24 14.5 -40.5 t35.5 -16.5q20 0 34.5 16t15.5 39q0 13 8.5 21.5t21.5 8.5h180q13 0 21.5 -8.5t8.5 -21.5v-45z" />
<glyph unicode="d" d="M616 30q0 -13 -8.5 -21.5t-21.5 -8.5h-180l-23 23q-33 -23 -77 -23h-161q-45 0 -77 23.5t-32 56.5v320q0 33 32 56.5t77 23.5h161q40 0 70 -19v109q0 13 8.5 21.5t21.5 8.5h180q13 0 21.5 -8.5t8.5 -21.5v-540zM376 127v226q0 24 -14.5 40.5t-35.5 16.5t-35.5 -16.5 t-14.5 -40.5v-226q0 -24 14.5 -40.5t35.5 -16.5t35.5 16.5t14.5 40.5z" />
<glyph unicode="e" d="M616 80q0 -33 -32 -56.5t-77 -23.5h-362q-45 0 -77 23.5t-32 56.5v320q0 33 32 56.5t77 23.5h362q45 0 77 -23.5t32 -56.5v-95q0 -33 -32 -56.5t-77 -23.5h-231v-98q0 -24 14.5 -40.5t35.5 -16.5q20 0 34.5 16t15.5 39q0 13 8.5 21.5t21.5 8.5h180q13 0 21.5 -8.5 t8.5 -21.5v-45zM376 285v68q0 24 -14.5 40.5t-35.5 16.5t-35.5 -16.5t-14.5 -40.5v-68h100z" />
<glyph unicode="f" horiz-adv-x="445" d="M455 541q0 -13 -9 -22.5t-21 -9.5h-99q-22 0 -36 -14.5t-14 -36.5v-28h119q12 0 21 -8.5t9 -21.5v-24q0 -13 -9 -21.5t-21 -8.5h-119v-316q0 -12 -8.5 -21t-21.5 -9h-180q-12 0 -21 9t-9 21v490q0 37 34.5 58.5t74.5 21.5h280q12 0 21 -8.5t9 -21.5v-29z" />
<glyph unicode="g" d="M616 -82q0 -34 -32 -57t-77 -23h-431q-13 0 -21.5 8.5t-8.5 21.5v30q0 12 8.5 21t21.5 9h305q13 0 21.5 8.5t8.5 21.5v12q0 13 -8.5 21.5t-21.5 8.5h-121q-16 0 -27 16l-53 82h-40q-44 2 -74 25t-30 55v222q0 33 32 56.5t77 23.5h174l59 104q9 16 27 16h181 q13 0 21.5 -8.5t8.5 -21.5v-20q0 -13 -8.5 -21.5t-21.5 -8.5h-127q-44 0 -75 -40h123q45 0 77 -23.5t32 -56.5v-222q0 -34 -32 -57t-77 -23h-244q34 -40 71 -40h173q45 0 77 -23.5t32 -56.5v-60zM376 224v129q0 24 -14.5 40.5t-35.5 16.5t-35.5 -16.5t-14.5 -40.5v-129 q0 -23 14.5 -39.5t35.5 -16.5t35.5 16.5t14.5 39.5z" />
<glyph unicode="h" d="M616 30q0 -13 -8.5 -21.5t-21.5 -8.5h-180q-13 0 -21.5 8.5t-8.5 21.5v320v3q0 24 -14.5 40.5t-35.5 16.5t-35.5 -16.5t-14.5 -40.5v-323q0 -13 -8.5 -21.5t-21.5 -8.5h-180q-13 0 -21.5 8.5t-8.5 21.5v541q0 12 8.5 21t21.5 9h180q13 0 21.5 -9t8.5 -21v-110 q30 19 70 19h161q45 0 77 -23.5t32 -56.5v-370z" />
<glyph unicode="i" horiz-adv-x="312" d="M276 543q0 -13 -8.5 -21.5t-21.5 -8.5h-180q-13 0 -21.5 8.5t-8.5 21.5v27q0 13 8.5 21.5t21.5 8.5h180q13 0 21.5 -8.5t8.5 -21.5v-27zM276 30q0 -13 -8.5 -21.5t-21.5 -8.5h-180q-13 0 -21.5 8.5t-8.5 21.5v420q0 13 8.5 21.5t21.5 8.5h180q13 0 21.5 -8.5t8.5 -21.5 v-420z" />
<glyph unicode="j" horiz-adv-x="315" d="M276 543q0 -13 -8.5 -21.5t-21.5 -8.5h-180q-13 0 -21.5 8.5t-8.5 21.5v27q0 12 8.5 21t21.5 9h180q13 0 21.5 -9t8.5 -21v-27zM279 -40q0 -33 -32 -56.5t-77 -23.5h-181v70q21 0 35.5 16.5t14.5 40.5v443q0 13 8.5 21.5t21.5 8.5h180q13 0 21.5 -8.5t8.5 -21.5v-490z " />
<glyph unicode="k" d="M616 30q0 -13 -8.5 -21.5t-21.5 -8.5h-180q-13 0 -21.5 8.5t-8.5 21.5v123q0 24 -14.5 40.5t-35.5 16.5t-35.5 -16.5t-14.5 -40.5v-123q0 -13 -8.5 -21.5t-21.5 -8.5h-180q-13 0 -21.5 8.5t-8.5 21.5v540q0 13 8.5 21.5t21.5 8.5h180q13 0 21.5 -8.5t8.5 -21.5v-290h23 l95 183q8 17 27 17h165q13 0 21.5 -9t8.5 -21v-47q0 -13 -8.5 -21.5t-21.5 -8.5h-90q-48 0 -88 -59l-23 -34h122q45 0 77 -23.5t32 -56.5v-170z" />
<glyph unicode="l" horiz-adv-x="331" d="M326 0h-181q-45 0 -77 23.5t-32 56.5v490q0 13 8.5 21.5t21.5 8.5h180q13 0 21.5 -8.5t8.5 -21.5v-443q0 -24 14.5 -40.5t35.5 -16.5v-70z" />
<glyph unicode="m" horiz-adv-x="883" d="M847 30q0 -13 -8.5 -21.5t-21.5 -8.5h-170q-12 0 -21 8.5t-9 21.5v320v3q0 24 -14.5 40.5t-35.5 16.5q-17 0 -30.5 -12t-17.5 -31v-304q0 -13 -9 -21.5t-21 -8.5h-93q-13 0 -21.5 8.5t-8.5 21.5v287v3q0 24 -14.5 40.5t-35.5 16.5t-35.5 -16.5t-14.5 -40.5v-323 q0 -13 -8.5 -21.5t-21.5 -8.5h-170q-13 0 -21.5 8.5t-8.5 21.5v420q0 13 8.5 21.5t21.5 8.5h170l23 -23q33 23 77 23h74q57 0 89 -34q31 34 88 34h152q45 0 76.5 -23.5t31.5 -56.5v-370z" />
<glyph unicode="n" d="M616 30q0 -13 -8.5 -21.5t-21.5 -8.5h-180q-13 0 -21.5 8.5t-8.5 21.5v320v3q0 24 -14.5 40.5t-35.5 16.5t-35.5 -16.5t-14.5 -40.5v-323q0 -13 -8.5 -21.5t-21.5 -8.5h-180q-13 0 -21.5 8.5t-8.5 21.5v420q0 13 8.5 21.5t21.5 8.5h180l23 -23q33 23 77 23h161 q45 0 77 -23.5t32 -56.5v-370z" />
<glyph unicode="o" d="M616 80q0 -33 -32 -56.5t-77 -23.5h-362q-45 0 -77 23.5t-32 56.5v320q0 33 32 56.5t77 23.5h362q45 0 77 -23.5t32 -56.5v-320zM376 127v226q0 24 -14.5 40.5t-35.5 16.5t-35.5 -16.5t-14.5 -40.5v-226q0 -24 14.5 -40.5t35.5 -16.5t35.5 16.5t14.5 40.5z" />
<glyph unicode="p" d="M616 80q0 -33 -32 -56.5t-77 -23.5h-161q-40 0 -70 19v-151q0 -13 -8.5 -21.5t-21.5 -8.5h-180q-13 0 -21.5 8.5t-8.5 21.5v582q0 13 8.5 21.5t21.5 8.5h180l23 -23q33 23 77 23h161q45 0 77 -23.5t32 -56.5v-320zM376 127v226q0 24 -14.5 40.5t-35.5 16.5t-35.5 -16.5 t-14.5 -40.5v-226q0 -24 14.5 -40.5t35.5 -16.5t35.5 16.5t14.5 40.5z" />
<glyph unicode="q" d="M616 -132q0 -13 -8.5 -21.5t-21.5 -8.5h-180q-13 0 -21.5 8.5t-8.5 21.5v151q-30 -19 -70 -19h-161q-45 0 -77 23.5t-32 56.5v320q0 33 32 56.5t77 23.5h161q44 0 77 -23l23 23h180q13 0 21.5 -8.5t8.5 -21.5v-582zM376 127v226q0 24 -14.5 40.5t-35.5 16.5t-35.5 -16.5 t-14.5 -40.5v-226q0 -24 14.5 -40.5t35.5 -16.5t35.5 16.5t14.5 40.5z" />
<glyph unicode="r" horiz-adv-x="587" d="M572 327q0 -13 -9 -21.5t-21 -8.5h-136q-13 0 -21.5 8.5t-8.5 21.5v26q0 24 -14.5 40.5t-35.5 16.5t-35.5 -16.5t-14.5 -40.5v-323q0 -13 -8.5 -21.5t-21.5 -8.5h-180q-13 0 -21.5 8.5t-8.5 21.5v420q0 13 8.5 21.5t21.5 8.5h180l23 -23q33 23 77 23h117q45 0 77 -23.5 t32 -56.5v-73z" />
<glyph unicode="s" horiz-adv-x="630" d="M600 112v-32q0 -33 -32 -56.5t-77 -23.5h-352q-45 0 -77 23.5t-32 56.5v60q0 13 8.5 21.5t21.5 8.5h175q13 0 21.5 -8.5t8.5 -21.5v-13q0 -24 14.5 -40.5t35.5 -16.5t35.5 16.5t14.5 40.5q0 41 -17 57q-5 4 -37 12.5t-80 19.5t-67 16q-32 8 -51.5 15.5t-41 22.5t-31.5 39 t-10 59v32q0 33 32 56.5t77 23.5h352q45 0 77 -23.5t32 -56.5v-60q0 -13 -8.5 -21.5t-21.5 -8.5h-175q-13 0 -21.5 8.5t-8.5 21.5v13q0 24 -14.5 40.5t-35.5 16.5t-35.5 -16.5t-14.5 -40.5q0 -42 17 -57q5 -4 37 -12t78 -18.5t69 -17.5q34 -10 51.5 -17t40 -21.5t32.5 -38.5 t10 -59z" />
<glyph unicode="t" horiz-adv-x="631" d="M596 80q0 -33 -32 -56.5t-77 -23.5h-342q-45 0 -77 23.5t-32 56.5v462q0 13 8.5 21.5t21.5 8.5h180q13 0 21.5 -8.5t8.5 -21.5v-63h228q12 0 21 -8.5t9 -21.5v-24q0 -12 -9 -21t-21 -9h-228v-268q0 -24 14.5 -40.5t35.5 -16.5q20 0 34.5 16t15.5 39v185q0 13 8.5 21.5 t21.5 8.5h160q13 0 21.5 -8.5t8.5 -21.5v-230z" />
<glyph unicode="u" d="M616 30q0 -13 -8.5 -21.5t-21.5 -8.5h-180l-23 23q-33 -23 -77 -23h-161q-45 0 -77 23.5t-32 56.5v370q0 13 8.5 21.5t21.5 8.5h180q13 0 21.5 -8.5t8.5 -21.5v-323q0 -24 14.5 -40.5t35.5 -16.5t35.5 16.5t14.5 40.5v323q0 13 8.5 21.5t21.5 8.5h180q13 0 21.5 -8.5 t8.5 -21.5v-420z" />
<glyph unicode="v" horiz-adv-x="651" d="M635 450l-138 -420q-9 -30 -36 -30h-271q-27 0 -36 30l-138 420q-3 13 4 21.5t19 8.5h185q13 0 23.5 -8.5t13.5 -21.5l65 -299l64 299q3 13 13.5 21.5t23.5 8.5h185q12 0 19 -8.5t4 -21.5z" />
<glyph unicode="w" horiz-adv-x="857" d="M841 450l-137 -420q-4 -12 -14 -21t-22 -9h-150q-16 0 -23 14l-66 217l-67 -217q-5 -14 -23 -14h-150q-12 0 -22 9t-14 21l-137 420q-4 12 3.5 21t20.5 9h192q12 0 22.5 -9t13.5 -21l74 -255l66 218h41l66 -218l74 255q4 12 14 21t22 9h192q13 0 20.5 -9t3.5 -21z" />
<glyph unicode="x" horiz-adv-x="663" d="M648 467q0 -9 -6 -17l-145 -210l145 -210q6 -6 6 -17q0 -13 -12 -13h-197q-22 0 -41 30l-67 104l-66 -104q-19 -30 -41 -30h-197q-12 0 -12 13q0 11 6 17l145 210l-145 210q-6 8 -6 17q0 13 12 13h197q22 0 41 -30l66 -104l67 104q19 30 41 30h197q12 0 12 -13z" />
<glyph unicode="y" d="M616 -82q0 -34 -32 -57t-77 -23h-362q-45 0 -77 23t-32 57v30q0 12 8.5 21t21.5 9h180q13 0 21.5 -9t8.5 -21v-14q0 -23 14.5 -39.5t35.5 -16.5t35.5 16.5t14.5 39.5v116h-231q-45 0 -77 23.5t-32 56.5v320q0 13 8.5 21.5t21.5 8.5h180q13 0 21.5 -8.5t8.5 -21.5v-293 q0 -24 14.5 -40.5t35.5 -16.5t35.5 16.5t14.5 40.5v293q0 13 8.5 21.5t21.5 8.5h180q13 0 21.5 -8.5t8.5 -21.5v-532z" />
<glyph unicode="z" horiz-adv-x="632" d="M596 30q0 -13 -8.5 -21.5t-21.5 -8.5h-502q-12 0 -20 9t-8 21v72q0 12 7 19l6 6l259 253h-242q-13 0 -21.5 9t-8.5 21v40q0 13 8.5 21.5t21.5 8.5h506q24 -5 24 -29v-73q0 -9 -5 -17l-7 -6l-278 -255h260q13 0 21.5 -9t8.5 -21v-40z" />
<glyph unicode="{" horiz-adv-x="465" d="M450 -133q0 -12 -10.5 -20.5t-24.5 -8.5h-91q-70 0 -120 36.5t-50 88.5v235q0 29 -18 50t-44 21h-21q-14 0 -24.5 8.5t-10.5 20.5v29q0 12 10.5 20.5t24.5 8.5h21q26 0 44 21t18 50v236q0 52 50 88.5t120 36.5h91q14 0 24.5 -8.5t10.5 -21.5v-29q0 -12 -10.5 -20.5 t-24.5 -8.5h-36q-26 0 -44 -21t-18 -50v-191q0 -52 -50 -88.5t-120 -36.5q70 0 120 -36.5t50 -88.5v-192q0 -29 18 -50t44 -21h36q14 0 24.5 -8.5t10.5 -20.5v-29z" />
<glyph unicode="|" horiz-adv-x="373" d="M268 -175q0 -16 -11 -26.5t-27 -10.5h-87q-16 0 -27 10.5t-11 26.5v975q0 16 11 27t27 11h87q16 0 27 -11t11 -27v-975z" />
<glyph unicode="}" horiz-adv-x="465" d="M429 298q0 -12 -10.5 -20.5t-24.5 -8.5h-21q-26 0 -44 -21t-18 -50v-235q0 -52 -50 -88.5t-120 -36.5h-91q-14 0 -24.5 8.5t-10.5 20.5v29q0 12 10.5 20.5t24.5 8.5h36q26 0 44 21t18 50v192q0 52 50 88.5t120 36.5q-70 0 -120 36.5t-50 88.5v191q0 29 -18 50t-44 21h-36 q-14 0 -24.5 8.5t-10.5 20.5v29q0 13 10.5 21.5t24.5 8.5h91q70 0 120 -36.5t50 -88.5v-236q0 -29 18 -50t44 -21h21q14 0 24.5 -8.5t10.5 -20.5v-29z" />
<glyph unicode="~" horiz-adv-x="535" d="M498 345q-12 -50 -38 -83q-30 -40 -75 -54q-61 -18 -123 31q-11 8 -32 26q-35 32 -54 29q-20 -4 -32 -53q-4 -15 -17 -22.5t-29 -4.5l-34 7q-15 3 -23 16.5t-4 28.5q12 49 38 84q32 41 75 53q60 18 124 -30q1 -1 31 -27q37 -32 54 -28q20 3 32 53q4 15 17.5 22t28.5 4 l34 -6q15 -3 23 -17t4 -29z" />
<glyph unicode="&#xa1;" horiz-adv-x="335" d="M256 269q0 -16 -11 -27t-27 -11h-101q-15 0 -26 11t-11 27v62q0 16 11 27t26 11h101q16 0 27 -11t11 -27v-62zM299 -194q0 -15 -10.5 -26t-26.5 -11h-188q-16 0 -27 11t-11 26l39 338q0 15 11 26t26 11h111q16 0 26.5 -11t10.5 -26z" />
<glyph unicode="&#xa2;" horiz-adv-x="510" d="M474 52q0 -12 -10.5 -20.5t-25.5 -8.5h-121v-44q0 -14 -8.5 -24.5t-20.5 -10.5h-29q-12 0 -20.5 10.5t-8.5 24.5v44h-24q-70 0 -120 36.5t-50 88.5v304q0 52 50 88.5t120 36.5h24v44q0 14 8.5 24.5t20.5 10.5h29q12 0 20.5 -10.5t8.5 -24.5v-44h121q15 0 25.5 -8.5 t10.5 -20.5v-29q0 -12 -10.5 -20.5t-25.5 -8.5h-127q-26 0 -44 -21t-18 -50v-238q0 -29 18 -50t44 -21h127q15 0 25.5 -8.5t10.5 -20.5v-29z" />
<glyph unicode="&#xa3;" horiz-adv-x="608" d="M572 29q0 -12 -10.5 -20.5t-25.5 -8.5h-465q-14 0 -24.5 8.5t-10.5 20.5v29q0 12 10.5 20.5t24.5 8.5h17v388q0 52 49.5 88.5t119.5 36.5h219q14 0 24.5 -8.5t10.5 -20.5v-29q0 -12 -10.5 -20.5t-24.5 -8.5h-102q-26 0 -44.5 -21t-18.5 -50v-98h113q14 0 24.5 -8.5 t10.5 -20.5v-30q0 -12 -10.5 -20.5t-24.5 -8.5h-113v-169h225q15 0 25.5 -8.5t10.5 -20.5v-29z" />
<glyph unicode="&#xa4;" horiz-adv-x="572" d="M536 29q0 -12 -10.5 -20.5t-24.5 -8.5h-233q-70 0 -119.5 36.5t-49.5 88.5v63h-28q-14 0 -24.5 8.5t-10.5 20.5v29q0 12 10.5 20.5t24.5 8.5h28v50h-28q-14 0 -24.5 8.5t-10.5 20.5v29q0 12 10.5 20.5t24.5 8.5h28v63q0 52 49.5 88.5t119.5 36.5h233q14 0 24.5 -8.5 t10.5 -20.5v-29q0 -12 -10.5 -20.5t-24.5 -8.5h-127q-26 0 -44.5 -21t-18.5 -50v-30h100q15 0 25.5 -8.5t10.5 -20.5v-29q0 -12 -10.5 -20.5t-25.5 -8.5h-100v-50h100q15 0 25.5 -8.5t10.5 -20.5v-29q0 -12 -10.5 -20.5t-25.5 -8.5h-100v-30q0 -29 18.5 -50t44.5 -21h127 q14 0 24.5 -8.5t10.5 -20.5v-29z" />
<glyph unicode="&#xa5;" horiz-adv-x="622" d="M586 354q0 -41 -40 -70.5t-96 -29.5h-33v-44h108q14 0 24.5 -8.5t10.5 -20.5v-29q0 -12 -10.5 -20.5t-24.5 -8.5h-108v-85q0 -16 -11 -27t-26 -11h-138q-15 0 -26 11t-11 27v85h-108q-14 0 -24.5 8.5t-10.5 20.5v29q0 12 10.5 20.5t24.5 8.5h108v44h-33q-56 0 -96 29.5 t-40 70.5v209q0 15 11 26t27 11h137q16 0 27 -11t11 -26v-192q0 -29 18 -50t44 -21t44.5 21t18.5 50v192q0 15 10.5 26t26.5 11h138q15 0 26 -11t11 -26v-209z" />
<glyph unicode="&#xa7;" horiz-adv-x="547" d="M511 -113q0 -52 -50 -88.5t-120 -36.5h-232q-15 0 -25 8.5t-10 20.5v29q0 12 10 20.5t25 8.5h127q26 0 44.5 21t18.5 50v21q0 29 -18.5 50t-44.5 21h-30q-70 0 -120 36.5t-50 88.5v88q0 46 41 81q-41 35 -41 82v87q0 52 50 88.5t120 36.5h232q15 0 25.5 -8.5t10.5 -20.5 v-29q0 -12 -10.5 -20.5t-25.5 -8.5h-127q-26 0 -44 -21t-18 -50v-21q0 -29 18 -50t44 -21h30q70 0 120 -36.5t50 -88.5v-87q0 -47 -41 -82q41 -35 41 -81v-88zM399 171v21q0 29 -18.5 50t-44.5 21l-125 -1q-26 0 -44 -21t-18 -50v-21q0 -29 18 -49.5t44 -20.5h125 q26 0 44.5 21t18.5 50z" />
<glyph unicode="&#xa8;" horiz-adv-x="572" d="M482 570q0 -16 -11 -27t-26 -11h-79q-15 0 -26 11t-11 27v42q0 16 11 27t26 11h79q15 0 26 -11t11 -27v-42zM243 570q0 -16 -11 -27t-26 -11h-79q-15 0 -26 11t-11 27v42q0 16 11 27t26 11h79q15 0 26 -11t11 -27v-42z" />
<glyph unicode="&#xa9;" horiz-adv-x="922" d="M886 75q0 -52 -50 -88.5t-120 -36.5h-510q-70 0 -120 36.5t-50 88.5v450q0 52 50 88.5t120 36.5h510q70 0 120 -36.5t50 -88.5v-450zM699 108v384q0 29 -18.5 50t-44.5 21h-350q-26 0 -44 -21t-18 -50v-384q0 -29 18 -50t44 -21h350q26 0 44.5 21t18.5 50zM645 117 q0 -12 -10.5 -20.5t-24.5 -8.5h-163q-71 0 -120.5 36.5t-49.5 88.5v175q0 52 50 88.5t120 36.5h163q14 0 24.5 -8.5t10.5 -21.5v-29q0 -12 -10.5 -20.5t-24.5 -8.5h-96q-26 0 -44 -21t-18 -50v-108q0 -29 18 -50t44 -21h96q14 0 24.5 -8.5t10.5 -20.5v-29z" />
<glyph unicode="&#xaa;" horiz-adv-x="472" d="M436 279q0 -26 -25.5 -45t-61.5 -19h-226q-36 0 -61.5 19t-25.5 45v72q0 33 32 56.5t77 23.5h131v67q0 19 -11.5 32t-28.5 13t-28.5 -13t-11.5 -32v-3q0 -10 -7 -17t-17 -7h-102q-10 0 -17 7t-7 17v40q0 27 25.5 45.5t61.5 18.5h216q36 0 61.5 -18.5t25.5 -45.5v-256z M276 317v10v56h-80v-66q0 -19 12 -32.5t28 -13.5t28 13.5t12 32.5z" />
<glyph unicode="&#xab;" horiz-adv-x="653" d="M610 126q10 -16 6 -27t-19 -11h-113q-17 0 -34 11q-20 13 -29 27l-114 174l114 174q9 14 29 27q17 11 34 11h113q15 0 19 -11t-6 -27l-115 -174zM339 126q10 -16 6.5 -27t-19.5 -11h-113q-15 0 -34 11q-18 12 -28 27l-115 174l115 174q10 15 28 27q19 11 34 11h113 q16 0 19.5 -11t-6.5 -27l-115 -174z" />
<glyph unicode="&#xac;" horiz-adv-x="588" d="M573 80q0 -33 -31.5 -56.5t-76.5 -23.5h-320q-45 0 -77 23.5t-32 56.5v478q0 12 8.5 21t21.5 9h180q13 0 21.5 -9t8.5 -21v-79h218q12 0 21 -8.5t9 -21.5v-24q0 -12 -9 -21t-21 -9h-218v-268q0 -24 14.5 -40.5t35.5 -16.5q20 0 34.5 16t15.5 39q0 13 8.5 21.5t21.5 8.5 h137q13 0 21.5 -8.5t8.5 -21.5v-45z" />
<glyph unicode="&#xae;" horiz-adv-x="922" d="M886 75q0 -52 -50 -88.5t-120 -36.5h-510q-70 0 -120 36.5t-50 88.5v450q0 52 50 88.5t120 36.5h510q70 0 120 -36.5t50 -88.5v-450zM699 108v384q0 29 -18.5 50t-44.5 21h-350q-26 0 -44 -21t-18 -50v-384q0 -29 18 -50t44 -21h350q26 0 44.5 21t18.5 50zM646 454 q0 -12 -10.5 -20.5t-25.5 -8.5h-95q-26 0 -44.5 -21t-18.5 -50v-237q0 -12 -10 -20.5t-25 -8.5h-104q-15 0 -25 8.5t-10 20.5v271q0 52 49.5 88.5t119.5 36.5h163q15 0 25.5 -8.5t10.5 -21.5v-29z" />
<glyph unicode="&#xaf;" horiz-adv-x="572" d="M463 570q0 -16 -11 -27t-27 -11h-278q-16 0 -27 11t-11 27v42q0 16 11 27t27 11h278q16 0 27 -11t11 -27v-42z" />
<glyph unicode="&#xb0;" horiz-adv-x="512" d="M476 480q0 -92 -64 -156t-156 -64q-91 0 -155.5 64.5t-64.5 155.5t64.5 155.5t155.5 64.5t155.5 -64.5t64.5 -155.5zM351 480q0 39 -27.5 67t-67.5 28q-39 0 -67 -28t-28 -67q0 -40 28 -67.5t67 -27.5q40 0 67.5 27.5t27.5 67.5z" />
<glyph unicode="&#xb1;" horiz-adv-x="497" d="M461 341q0 -16 -11 -27t-26 -11h-104v-103q0 -16 -10.5 -26.5t-26.5 -10.5h-69q-16 0 -26.5 10.5t-10.5 26.5v103h-103q-16 0 -27 11t-11 27v68q0 16 11 27t27 11h103v103q0 16 10.5 27t26.5 11h69q16 0 26.5 -11t10.5 -27v-103h104q15 0 26 -11t11 -27v-68zM449 29 q0 -12 -10.5 -20.5t-24.5 -8.5h-331q-14 0 -24.5 8.5t-10.5 20.5v68q0 12 10.5 20.5t24.5 8.5h331q14 0 24.5 -8.5t10.5 -20.5v-68z" />
<glyph unicode="&#xb4;" horiz-adv-x="572" d="M457 580q4 -15 -3.5 -29t-22.5 -18h-265q-39 0 -47 26l-4 15q-4 14 3.5 28t22.5 18l245 70q15 4 28.5 -3.5t18.5 -22.5z" />
<glyph unicode="&#xb5;" horiz-adv-x="533" d="M497 30q0 -13 -9 -21.5t-21 -8.5h-120l-23 23q-33 -23 -77 -23h-29v-119q0 -13 -9 -21.5t-21 -8.5h-121q-13 0 -21.5 8.5t-8.5 21.5l-1 569q0 13 8.5 21.5t21.5 8.5h121q12 0 21 -8.5t9 -21.5v-323q0 -24 14.5 -40.5t35.5 -16.5t35.5 16.5t14.5 40.5v323q0 13 8.5 21.5 t21.5 8.5h120q12 0 21 -8.5t9 -21.5v-420z" />
<glyph unicode="&#xb6;" horiz-adv-x="793" d="M757 38q0 -16 -11 -27t-27 -11h-141q-16 0 -26.5 11t-10.5 27v525q0 15 10.5 26t26.5 11h141q16 0 27 -11t11 -26v-525zM488 38q0 -16 -11 -27t-27 -11h-37q-15 0 -26 11t-11 27v187h-204q-56 0 -96 29.5t-40 70.5v175q0 41 40 70.5t96 29.5h278q16 0 27 -11t11 -26v-525 zM376 301v212h-72q-23 0 -39 -8.5t-16 -21.5v-153q0 -12 16 -20.5t39 -8.5h72z" />
<glyph unicode="&#xb7;" horiz-adv-x="247" d="M211 269q0 -16 -11 -27t-26 -11h-100q-16 0 -27 11t-11 27v62q0 16 11 27t27 11h100q15 0 26 -11t11 -27v-62z" />
<glyph unicode="&#xb8;" horiz-adv-x="572" d="M417 -162q0 -16 -11 -27t-26 -11h-188q-15 0 -26 11t-11 27v42q0 16 11 27t26 11h67q29 0 49.5 18t21.5 44v20h87v-162z" />
<glyph unicode="&#xba;" horiz-adv-x="472" d="M436 279q0 -26 -25.5 -45t-61.5 -19h-226q-36 0 -61.5 19t-25.5 45v256q0 27 25.5 45.5t61.5 18.5h226q36 0 61.5 -18.5t25.5 -45.5v-256zM276 317v181q0 19 -11.5 32t-28.5 13t-28.5 -13t-11.5 -32v-181q0 -19 12 -32.5t28 -13.5t28 13.5t12 32.5z" />
<glyph unicode="&#xbb;" horiz-adv-x="653" d="M617 300l-115 -174q-10 -15 -28 -27q-19 -11 -34 -11h-113q-16 0 -19.5 11t6.5 27l115 174l-115 174q-10 16 -6.5 27t19.5 11h113q15 0 34 -11q18 -12 28 -27zM346 300l-115 -174q-8 -14 -28 -27q-17 -11 -34 -11h-113q-15 0 -19 11t6 27l115 174l-115 174q-10 16 -6 27 t19 11h113q17 0 34 -11q20 -13 28 -27z" />
<glyph unicode="&#xbf;" horiz-adv-x="597" d="M399 269q0 -16 -11 -27t-27 -11h-100q-16 0 -26.5 11t-10.5 27v62q0 16 10.5 27t26.5 11h100q16 0 27 -11t11 -27v-62zM561 -202q0 -12 -10.5 -20.5t-24.5 -8.5h-320q-70 0 -120 36.5t-50 88.5v162q0 52 50 88.5t120 36.5h170q14 0 24.5 -8.5t10.5 -20.5v-29 q0 -12 -10.5 -20.5t-24.5 -8.5h-65q-26 0 -44 -21t-18 -50v-96q0 -29 18 -50t44 -21h215q14 0 24.5 -8.5t10.5 -20.5v-29z" />
<glyph unicode="&#xc0;" horiz-adv-x="858" d="M602 704l-4 -15q-8 -26 -46 -26h-266q-15 4 -22.5 18t-2.5 29l24 84q5 15 18 22.5t28 3.5l245 -70q15 -5 22.5 -18t3.5 -28zM843 28q0 -28 -28 -28h-246q-16 0 -30.5 11t-17.5 26l-18 83h-148l-19 -83q-3 -15 -17.5 -26t-29.5 -11h-247q-12 0 -19.5 9t-7.5 22q0 7 3 15 l170 517q5 15 18.5 26t29.5 11h386q15 0 28.5 -11t18.5 -26l171 -517q3 -9 3 -18zM484 209l-56 254l-55 -254h111z" />
<glyph unicode="&#xc1;" horiz-adv-x="858" d="M590 710q4 -15 -3.5 -28.5t-22.5 -18.5h-265q-39 0 -46 26l-4 15q-4 15 3 28t22 18l246 70q15 4 28 -3.5t18 -22.5zM843 28q0 -28 -28 -28h-246q-16 0 -30.5 11t-17.5 26l-18 83h-148l-19 -83q-3 -15 -17.5 -26t-29.5 -11h-247q-12 0 -19.5 9t-7.5 22q0 7 3 15l170 517 q5 15 18.5 26t29.5 11h386q15 0 28.5 -11t18.5 -26l171 -517q3 -9 3 -18zM484 209l-56 254l-55 -254h111z" />
<glyph unicode="&#xc2;" horiz-adv-x="851" d="M596 719l-21 -37q-8 -13 -23.5 -17.5t-28.5 3.5l-95 82l-95 -82q-13 -8 -28.5 -3.5t-22.5 17.5l-22 37q-8 13 -3.5 28.5t17.5 22.5l134 77q8 5 20 5t21 -5l133 -77q13 -7 17.5 -22.5t-3.5 -28.5zM843 28q0 -28 -28 -28h-246q-16 0 -30.5 11t-17.5 26l-18 83h-148l-19 -83 q-3 -15 -17.5 -26t-29.5 -11h-247q-12 0 -19.5 9t-7.5 22q0 7 3 15l170 517q5 15 19 26t29 11h386q15 0 28.5 -11t18.5 -26l171 -517q3 -9 3 -18zM484 209l-56 254l-55 -254h111z" />
<glyph unicode="&#xc3;" horiz-adv-x="858" d="M603 749q-20 -67 -78 -89q-50 -18 -101 16q-8 5 -25 16q-30 21 -41 17q-13 -5 -18 -23q-5 -15 -17 -21q-11 -7 -27 -3l-23 7q-25 7 -25 33q0 4 2 10q21 69 77 89q51 18 102 -16q7 -4 24 -16q29 -20 41 -16q12 2 18 23q5 14 17 20q13 8 27 3l23 -7q14 -4 21 -16.5t3 -26.5 zM843 28q0 -28 -28 -28h-246q-16 0 -30.5 11t-17.5 26l-18 83h-148l-19 -83q-3 -15 -17.5 -26t-29.5 -11h-247q-12 0 -19.5 9t-7.5 22q0 7 3 15l170 517q5 15 18.5 26t29.5 11h386q15 0 28.5 -11t18.5 -26l171 -517q3 -9 3 -18zM484 209l-56 254l-55 -254h111z" />
<glyph unicode="&#xc4;" horiz-adv-x="858" d="M622 707q0 -15 -11 -26t-27 -11h-78q-15 0 -26 11t-11 26v43q0 16 11 27t26 11h78q16 0 27 -11t11 -27v-43zM383 707q0 -15 -11 -26t-27 -11h-78q-15 0 -26 11t-11 26v43q0 16 11 27t26 11h78q16 0 27 -11t11 -27v-43zM843 28q0 -28 -28 -28h-246q-16 0 -30.5 11 t-17.5 26l-18 83h-148l-19 -83q-3 -15 -17.5 -26t-29.5 -11h-247q-12 0 -19.5 9t-7.5 22q0 7 3 15l170 517q5 15 18.5 26t29.5 11h386q15 0 28.5 -11t18.5 -26l171 -517q3 -9 3 -18zM484 209l-56 254l-55 -254h111z" />
<glyph unicode="&#xc5;" horiz-adv-x="858" d="M550 772q0 -51 -36 -86.5t-86 -35.5q-51 0 -86.5 35.5t-35.5 86.5q0 50 35.5 86t86.5 36q50 0 86 -36t36 -86zM843 28q0 -28 -28 -28h-246q-16 0 -30.5 11t-17.5 26l-18 83h-148l-19 -83q-3 -15 -17.5 -26t-29.5 -11h-247q-12 0 -19.5 9t-7.5 22q0 7 3 15l170 517 q5 15 18.5 26t29.5 11h386q15 0 28.5 -11t18.5 -26l171 -517q3 -9 3 -18zM472 772q0 18 -13 31t-31 13q-19 0 -32 -13t-13 -31q0 -19 13 -32t32 -13q18 0 31 13t13 32zM484 209l-56 254l-55 -254h111z" />
<glyph unicode="&#xc6;" horiz-adv-x="1128" d="M1100 37q0 -15 -10.5 -26t-26.5 -11h-533q-15 0 -25.5 11t-10.5 26v83h-130l-36 -83q-6 -15 -22 -26t-32 -11h-241q-22 0 -22 22q0 8 7 24l254 517q8 15 24 26t32 11h735q13 0 21.5 -5.5t11.5 -18t4 -20t0.5 -25t-0.5 -18.5q0 -15 -11 -26.5t-26 -11.5h-281v-122h186 q6 0 11.5 -1.5t9 -4.5t6.5 -5.5t4.5 -8.5t2.5 -9t1.5 -10.5t0.5 -10v-11v-9.5q0 -15 -10.5 -26t-25.5 -11h-186v-121h281q13 0 21.5 -5.5t11.5 -18t4 -20t0.5 -25.5t-0.5 -19zM494 209v254l-99 -254h99z" />
<glyph unicode="&#xc7;" horiz-adv-x="772" d="M736 100q0 -41 -40 -70.5t-96 -29.5h-61v-162q0 -16 -11 -27t-27 -11h-187q-16 0 -27 11t-11 27v42q0 16 11 27t27 11h66q29 0 49.5 18t21.5 44v20h-279q-56 0 -96 29.5t-40 70.5v400q0 41 40 70.5t96 29.5h428q56 0 96 -29.5t40 -70.5v-125q0 -16 -11 -26.5t-26 -10.5 h-210q-16 0 -27 10.5t-11 26.5v67q0 29 -18 50t-44 21t-44.5 -21t-18.5 -50v-284q0 -29 18.5 -49.5t44.5 -20.5t44 20.5t18 49.5v67q0 16 11 27t27 11h210q15 0 26 -11t11 -27v-125z" />
<glyph unicode="&#xc8;" horiz-adv-x="693" d="M531 704l-4 -15q-8 -26 -47 -26h-265q-15 4 -22.5 18t-3.5 29l25 84q4 15 17.5 22.5t28.5 3.5l245 -70q15 -5 22.5 -18t3.5 -28zM657 37q0 -15 -10.5 -26t-25.5 -11h-549q-15 0 -25.5 11t-10.5 26v526q0 15 10.5 26t25.5 11h549q15 0 25.5 -11t10.5 -26v-50 q0 -16 -10.5 -27t-25.5 -11h-281v-122h185q15 0 25.5 -11t10.5 -27v-32q0 -15 -10.5 -26t-25.5 -11h-185v-121h281q15 0 25.5 -11t10.5 -27v-50z" />
<glyph unicode="&#xc9;" horiz-adv-x="733" d="M533 710q4 -15 -3.5 -29t-22.5 -18h-265q-39 0 -47 26l-4 15q-4 15 3.5 28.5t22.5 17.5l245 70q15 4 28.5 -3.5t18.5 -22.5zM657 37q0 -15 -10.5 -26t-25.5 -11h-549q-15 0 -25.5 11t-10.5 26v526q0 15 10.5 26t25.5 11h549q15 0 25.5 -11t10.5 -26v-50q0 -16 -10.5 -27 t-25.5 -11h-281v-122h185q15 0 25.5 -11t10.5 -27v-32q0 -15 -10.5 -26t-25.5 -11h-185v-121h281q15 0 25.5 -11t10.5 -27v-50z" />
<glyph unicode="&#xca;" horiz-adv-x="693" d="M530 719l-21 -37q-7 -13 -22.5 -17.5t-28.5 3.5l-96 82l-95 -82q-13 -8 -28.5 -3.5t-22.5 17.5l-21 37q-8 14 -4.5 28.5t17.5 22.5l134 77q8 5 20 5t21 -5l133 -77q13 -7 17.5 -22.5t-3.5 -28.5zM657 37q0 -15 -10.5 -26t-25.5 -11h-549q-15 0 -25.5 11t-10.5 26v526 q0 15 10.5 26t25.5 11h549q15 0 25.5 -11t10.5 -26v-50q0 -16 -10.5 -27t-25.5 -11h-281v-122h185q15 0 25.5 -11t10.5 -27v-32q0 -15 -10.5 -26t-25.5 -11h-185v-121h281q15 0 25.5 -11t10.5 -27v-50z" />
<glyph unicode="&#xcb;" horiz-adv-x="693" d="M562 707q0 -15 -11 -26t-27 -11h-78q-16 0 -27 11t-11 26v43q0 16 11 27t27 11h78q16 0 27 -11t11 -27v-43zM323 707q0 -15 -11 -26t-27 -11h-78q-16 0 -27 11t-11 26v43q0 16 11 27t27 11h78q16 0 27 -11t11 -27v-43zM657 37q0 -15 -10.5 -26t-25.5 -11h-549 q-15 0 -25.5 11t-10.5 26v526q0 15 10.5 26t25.5 11h549q15 0 25.5 -11t10.5 -26v-50q0 -16 -10.5 -27t-25.5 -11h-281v-122h185q15 0 25.5 -11t10.5 -27v-32q0 -15 -10.5 -26t-25.5 -11h-185v-121h281q15 0 25.5 -11t10.5 -27v-50z" />
<glyph unicode="&#xcc;" horiz-adv-x="365" d="M357 704l-4 -15q-8 -26 -47 -26h-265q-15 4 -22.5 18t-3.5 29l25 84q4 15 17.5 22.5t28.5 3.5l245 -70q15 -5 22.5 -18t3.5 -28zM326 38q0 -16 -11 -27t-26 -11h-215q-16 0 -27 11t-11 27v525q0 15 11 26t27 11h215q15 0 26 -11t11 -26v-525z" />
<glyph unicode="&#xcd;" horiz-adv-x="365" d="M344 710q4 -15 -3.5 -28.5t-22.5 -18.5h-265q-39 0 -46 26l-4 15q-4 15 3 28t22 18l245 70q15 4 28.5 -3.5t18.5 -22.5zM326 38q0 -16 -11 -27t-26 -11h-215q-16 0 -27 11t-11 27v525q0 15 11 26t27 11h215q15 0 26 -11t11 -26v-525z" />
<glyph unicode="&#xce;" horiz-adv-x="364" d="M350 719l-21 -37q-8 -13 -23.5 -17.5t-28.5 3.5l-95 82l-95 -82q-13 -8 -28.5 -3.5t-22.5 17.5l-22 37q-8 13 -3.5 28.5t17.5 22.5l133 77q9 5 21 5t21 -5l133 -77q13 -7 17.5 -22.5t-3.5 -28.5zM326 38q0 -16 -11 -27t-26 -11h-215q-16 0 -27 11t-11 27v525q0 15 11 26 t27 11h215q15 0 26 -11t11 -26v-525z" />
<glyph unicode="&#xcf;" horiz-adv-x="363" d="M378 707q0 -15 -11 -26t-27 -11h-78q-16 0 -27 11t-11 26v43q0 16 11 27t27 11h78q16 0 27 -11t11 -27v-43zM139 707q0 -15 -11 -26t-27 -11h-78q-16 0 -27 11t-11 26v43q0 16 11 27t27 11h78q16 0 27 -11t11 -27v-43zM326 38q0 -16 -11 -27t-26 -11h-215q-16 0 -27 11 t-11 27v525q0 15 11 26t27 11h215q15 0 26 -11t11 -26v-525z" />
<glyph unicode="&#xd0;" horiz-adv-x="777" d="M741 100q0 -41 -40 -70.5t-96 -29.5h-531q-16 0 -27 11t-11 27v187q-15 1 -25 12t-10 26v75q0 14 10 25t25 12v188q0 15 11 26t27 11h531q56 0 96 -29.5t40 -70.5v-400zM451 158v284q0 29 -23 50t-55 21h-47v-138h2q16 0 27 -11t11 -26v-75q0 -16 -11 -27t-27 -11h-2 v-137h47q32 0 55 20.5t23 49.5z" />
<glyph unicode="&#xd1;" horiz-adv-x="822" d="M600 749q-20 -67 -78 -89q-50 -18 -101 16q-8 5 -25 16q-30 21 -41 17q-13 -5 -18 -23q-5 -15 -17 -21q-11 -7 -27 -3l-23 7q-25 7 -25 33q0 4 2 10q21 69 77 89q51 18 102 -16q7 -4 24 -16q29 -20 41 -16q12 2 18 23q5 14 17 20q14 8 27 3l23 -7q14 -4 21 -16.5t3 -26.5 zM786 37q0 -15 -10.5 -26t-26.5 -11h-184q-20 0 -33 8q-11 7 -19 20l-175 279v-270q0 -15 -10.5 -26t-25.5 -11h-230q-15 0 -25.5 11t-10.5 26v526q0 15 10.5 26t25.5 11h189q31 0 48 -26l174 -288v277q0 15 11 26t26 11h229q16 0 26.5 -11t10.5 -26v-526z" />
<glyph unicode="&#xd2;" horiz-adv-x="777" d="M572 704l-4 -15q-8 -26 -46 -26h-265q-15 5 -22.5 18.5t-3.5 28.5l24 84q5 15 18 22.5t28 3.5l246 -70q14 -5 21.5 -18t3.5 -28zM741 100q0 -41 -40 -70.5t-96 -29.5h-433q-56 0 -96 29.5t-40 70.5v400q0 41 40 70.5t96 29.5h433q56 0 96 -29.5t40 -70.5v-400zM451 158 v284q0 29 -18.5 50t-44.5 21t-44 -21t-18 -50v-284q0 -29 18 -49.5t44 -20.5t44.5 20.5t18.5 49.5z" />
<glyph unicode="&#xd3;" horiz-adv-x="777" d="M553 710q5 -15 -2.5 -29t-22.5 -18h-266q-38 0 -46 26l-4 15q-4 15 3.5 28t22.5 18l245 70q15 4 28.5 -3.5t17.5 -22.5zM741 100q0 -41 -40 -70.5t-96 -29.5h-433q-56 0 -96 29.5t-40 70.5v400q0 41 40 70.5t96 29.5h433q56 0 96 -29.5t40 -70.5v-400zM451 158v284 q0 29 -18.5 50t-44.5 21t-44 -21t-18 -50v-284q0 -29 18 -49.5t44 -20.5t44.5 20.5t18.5 49.5z" />
<glyph unicode="&#xd4;" horiz-adv-x="777" d="M556 719l-21 -37q-7 -13 -22.5 -17.5t-28.5 3.5l-95 82l-96 -82q-13 -8 -28.5 -3.5t-22.5 17.5l-21 37q-8 14 -4 28.5t18 22.5l133 77q8 5 21 5t20 -5l134 -77q13 -8 17 -22.5t-4 -28.5zM741 100q0 -41 -40 -70.5t-96 -29.5h-433q-56 0 -96 29.5t-40 70.5v400 q0 41 40 70.5t96 29.5h433q56 0 96 -29.5t40 -70.5v-400zM451 158v284q0 29 -18.5 50t-44.5 21t-44 -21t-18 -50v-284q0 -29 18 -49.5t44 -20.5t44.5 20.5t18.5 49.5z" />
<glyph unicode="&#xd5;" horiz-adv-x="777" d="M575 749q-20 -67 -78 -89q-50 -18 -101 16q-8 5 -25 16q-30 21 -41 17q-13 -5 -18 -23q-5 -15 -17 -21q-11 -7 -27 -3l-23 7q-25 7 -25 33q0 4 2 10q21 69 77 89q51 18 102 -16q7 -4 24 -16q29 -20 41 -16q12 2 18 23q5 14 17 20q13 8 27 3l23 -7q14 -4 21 -16.5t3 -26.5 zM741 100q0 -41 -40 -70.5t-96 -29.5h-433q-56 0 -96 29.5t-40 70.5v400q0 41 40 70.5t96 29.5h433q56 0 96 -29.5t40 -70.5v-400zM451 158v284q0 29 -18.5 50t-44.5 21t-44 -21t-18 -50v-284q0 -29 18 -49.5t44 -20.5t44.5 20.5t18.5 49.5z" />
<glyph unicode="&#xd6;" horiz-adv-x="777" d="M587 707q0 -15 -11 -26t-27 -11h-78q-16 0 -27 11t-11 26v43q0 16 11 27t27 11h78q16 0 27 -11t11 -27v-43zM348 707q0 -15 -11 -26t-27 -11h-78q-16 0 -27 11t-11 26v43q0 16 11 27t27 11h78q16 0 27 -11t11 -27v-43zM741 100q0 -41 -40 -70.5t-96 -29.5h-433 q-56 0 -96 29.5t-40 70.5v400q0 41 40 70.5t96 29.5h433q56 0 96 -29.5t40 -70.5v-400zM451 158v284q0 29 -18.5 50t-44.5 21t-44 -21t-18 -50v-284q0 -29 18 -49.5t44 -20.5t44.5 20.5t18.5 49.5z" />
<glyph unicode="&#xd8;" horiz-adv-x="777" d="M741 100q0 -41 -40 -70.5t-96 -29.5h-433q-56 0 -96 29.5t-40 70.5v400q0 41 40 70.5t96 29.5h433q56 0 96 -29.5t40 -70.5v-400zM451 424v18q0 29 -18 50t-44 21t-44.5 -21t-18.5 -50v-143zM451 158v143l-125 -125v-18q0 -29 18.5 -49.5t44.5 -20.5t44 20.5t18 49.5z " />
<glyph unicode="&#xd9;" horiz-adv-x="777" d="M572 704l-4 -15q-8 -26 -46 -26h-265q-15 5 -22.5 18.5t-3.5 28.5l24 84q5 15 18 22.5t28 3.5l246 -70q14 -5 21.5 -18t3.5 -28zM741 100q0 -41 -40 -70.5t-96 -29.5h-433q-56 0 -96 29.5t-40 70.5v463q0 15 11 26t27 11h215q15 0 26 -11t11 -26v-405q0 -29 18.5 -49.5 t44.5 -20.5t44 20.5t18 49.5v405q0 15 11 26t27 11h215q15 0 26 -11t11 -26v-463z" />
<glyph unicode="&#xda;" horiz-adv-x="777" d="M553 710q5 -15 -2.5 -29t-22.5 -18h-266q-38 0 -46 26l-4 15q-4 15 3.5 28t22.5 18l245 70q15 4 28.5 -3.5t17.5 -22.5zM741 100q0 -41 -40 -70.5t-96 -29.5h-433q-56 0 -96 29.5t-40 70.5v463q0 15 11 26t27 11h215q15 0 26 -11t11 -26v-405q0 -29 18.5 -49.5 t44.5 -20.5t44 20.5t18 49.5v405q0 15 11 26t27 11h215q15 0 26 -11t11 -26v-463z" />
<glyph unicode="&#xdb;" horiz-adv-x="777" d="M556 719l-21 -37q-7 -13 -22.5 -17.5t-28.5 3.5l-95 82l-96 -82q-13 -8 -28.5 -3.5t-22.5 17.5l-21 37q-8 14 -4 28.5t18 22.5l133 77q8 5 21 5t20 -5l134 -77q13 -8 17 -22.5t-4 -28.5zM741 100q0 -41 -40 -70.5t-96 -29.5h-433q-56 0 -96 29.5t-40 70.5v463q0 15 11 26 t27 11h215q15 0 26 -11t11 -26v-405q0 -29 18.5 -49.5t44.5 -20.5t44 20.5t18 49.5v405q0 15 11 26t27 11h215q15 0 26 -11t11 -26v-463z" />
<glyph unicode="&#xdc;" horiz-adv-x="777" d="M586 707q0 -15 -10.5 -26t-26.5 -11h-78q-16 0 -27 11t-11 26v43q0 16 11 27t27 11h78q16 0 26.5 -11t10.5 -27v-43zM347 707q0 -15 -10.5 -26t-26.5 -11h-78q-16 0 -27 11t-11 26v43q0 16 11 27t27 11h78q16 0 26.5 -11t10.5 -27v-43zM741 100q0 -41 -40 -70.5 t-96 -29.5h-433q-56 0 -96 29.5t-40 70.5v463q0 15 11 26t27 11h215q15 0 26 -11t11 -26v-405q0 -29 18.5 -49.5t44.5 -20.5t44 20.5t18 49.5v405q0 15 11 26t27 11h215q15 0 26 -11t11 -26v-463z" />
<glyph unicode="&#xdd;" horiz-adv-x="777" d="M554 710q4 -15 -3.5 -29t-22.5 -18h-265q-39 0 -47 26l-4 15q-4 15 3.5 28t22.5 18l245 70q15 4 28.5 -3.5t17.5 -22.5zM741 100q0 -41 -40 -70.5t-96 -29.5h-433q-56 0 -96 29.5t-40 70.5v37q0 16 11 27t27 11h215q15 0 26 -11t11 -27v-16q0 -29 18.5 -50t44.5 -21 t44 21t18 50v108h-279q-56 0 -96 29.5t-40 70.5v233q0 16 11 27t27 11h215q15 0 26 -11t11 -27v-200q0 -29 18.5 -49.5t44.5 -20.5t44 20.5t18 49.5v200q0 16 11 27t27 11h215q15 0 26 -11t11 -27v-462z" />
<glyph unicode="&#xde;" horiz-adv-x="670" d="M634 238q0 -42 -40 -71t-96 -29h-133q-50 0 -87 23v-123q0 -16 -11 -27t-27 -11h-166q-16 0 -27 11t-11 27v674q0 16 11 27t27 11h166q16 0 27 -11t11 -27v-123q37 23 87 23h133q56 0 96 -29t40 -71v-274zM403 296v158q0 29 -18.5 50t-44.5 21t-44 -21t-18 -50v-158 q0 -29 18 -50t44 -21t44.5 21t18.5 50z" />
<glyph unicode="&#xdf;" horiz-adv-x="999" d="M963 112v-32q0 -33 -32 -56.5t-77 -23.5h-353q-45 0 -76.5 23.5t-31.5 56.5v60q0 13 8.5 21.5t21.5 8.5h175q12 0 21 -8.5t9 -21.5v-13q0 -24 14.5 -40.5t35.5 -16.5q20 0 35 16.5t15 40.5q0 37 -18 57q-11 12 -183 57q-32 8 -43 11t-34.5 13.5t-32 21.5t-16.5 32t-8 49 v32q0 30 25.5 52t64.5 27q-2 22 -16.5 36.5t-33.5 14.5h-44q-21 0 -35.5 -16.5t-14.5 -40.5v-443q0 -13 -9 -21.5t-21 -8.5h-180q-13 0 -21.5 8.5t-8.5 21.5v236h-33q-13 0 -21.5 8.5t-8.5 21.5v24q0 13 8.5 21.5t21.5 8.5h33v170q0 33 31.5 56.5t76.5 23.5h388 q45 0 77 -23.5t32 -56.5v-80q0 -11 -7.5 -19.5t-18.5 -10.5q-21 0 -35.5 -16.5t-14.5 -40.5q0 -38 17 -57q4 -5 35.5 -14.5t80 -23t67.5 -19.5q5 -2 23.5 -7t24 -7t20 -7t19.5 -9t15.5 -11t14.5 -15t9 -18.5t7 -23.5t2 -29z" />
<glyph unicode="&#xe0;" d="M514 574l-4 -15q-8 -26 -47 -26h-265q-15 4 -22.5 18t-3.5 29l25 84q4 15 17.5 22.5t28.5 3.5l245 -70q15 -5 22.5 -18.5t3.5 -27.5zM616 80q0 -33 -32 -56.5t-77 -23.5h-362q-45 0 -77 23.5t-32 56.5v90q0 41 40 70.5t96 29.5h204v83q0 24 -14.5 40.5t-35.5 16.5 t-35.5 -16.5t-14.5 -40.5v-3q0 -13 -8.5 -21.5t-21.5 -8.5h-167q-13 0 -21.5 8.5t-8.5 21.5v50q0 33 31.5 56.5t76.5 23.5h350q45 0 77 -23.5t32 -56.5v-320zM376 127v13v70h-100v-83q0 -24 14.5 -40.5t35.5 -16.5t35.5 16.5t14.5 40.5z" />
<glyph unicode="&#xe1;" d="M495 580q4 -15 -3.5 -29t-22.5 -18h-265q-39 0 -47 26l-4 15q-4 14 3.5 27.5t22.5 18.5l245 70q15 4 28.5 -3.5t17.5 -22.5zM616 80q0 -33 -32 -56.5t-77 -23.5h-362q-45 0 -77 23.5t-32 56.5v90q0 41 40 70.5t96 29.5h204v83q0 24 -14.5 40.5t-35.5 16.5t-35.5 -16.5 t-14.5 -40.5v-3q0 -13 -8.5 -21.5t-21.5 -8.5h-167q-13 0 -21.5 8.5t-8.5 21.5v50q0 33 31.5 56.5t76.5 23.5h350q45 0 77 -23.5t32 -56.5v-320zM376 127v13v70h-100v-83q0 -24 14.5 -40.5t35.5 -16.5t35.5 16.5t14.5 40.5z" />
<glyph unicode="&#xe2;" d="M499 569l-22 -37q-7 -13 -22.5 -17.5t-28.5 3.5l-95 82l-95 -82q-13 -8 -28.5 -3.5t-23.5 17.5l-21 37q-8 13 -3.5 28.5t17.5 22.5l133 77q9 5 21 5t21 -5l133 -77q13 -7 17.5 -22.5t-3.5 -28.5zM616 80q0 -33 -32 -56.5t-77 -23.5h-362q-45 0 -77 23.5t-32 56.5v90 q0 41 40 70.5t96 29.5h204v83q0 24 -14.5 40.5t-35.5 16.5t-35.5 -16.5t-14.5 -40.5v-3q0 -13 -8.5 -21.5t-21.5 -8.5h-167q-13 0 -21.5 8.5t-8.5 21.5v50q0 33 31.5 56.5t76.5 23.5h350q45 0 77 -23.5t32 -56.5v-320zM376 127v13v70h-100v-83q0 -24 14.5 -40.5t35.5 -16.5 t35.5 16.5t14.5 40.5z" />
<glyph unicode="&#xe3;" d="M519 626q-20 -67 -77 -89q-49 -18 -102 16q-7 5 -24 16q-29 20 -41 17q-12 -4 -19 -23q-3 -15 -16 -21q-14 -8 -27 -3l-23 7q-25 7 -25 33q0 7 1 10q21 69 78 89q51 18 101 -16q8 -4 25 -16q28 -20 41 -17q12 5 18 24q5 14 17 20q13 8 27 3l23 -7q14 -4 20.5 -17t2.5 -26 zM616 80q0 -33 -32 -56.5t-77 -23.5h-362q-45 0 -77 23.5t-32 56.5v90q0 41 40 70.5t96 29.5h204v83q0 24 -14.5 40.5t-35.5 16.5t-35.5 -16.5t-14.5 -40.5v-3q0 -13 -8.5 -21.5t-21.5 -8.5h-167q-13 0 -21.5 8.5t-8.5 21.5v50q0 33 31.5 56.5t76.5 23.5h350q45 0 77 -23.5 t32 -56.5v-320zM376 127v13v70h-100v-83q0 -24 14.5 -40.5t35.5 -16.5t35.5 16.5t14.5 40.5z" />
<glyph unicode="&#xe4;" d="M533 570q0 -16 -11 -27t-26 -11h-79q-15 0 -26 11t-11 27v42q0 16 11 27t26 11h79q15 0 26 -11t11 -27v-42zM294 570q0 -16 -11 -27t-27 -11h-78q-15 0 -26 11t-11 27v42q0 16 11 27t26 11h78q16 0 27 -11t11 -27v-42zM616 80q0 -33 -32 -56.5t-77 -23.5h-362 q-45 0 -77 23.5t-32 56.5v90q0 41 40 70.5t96 29.5h204v83q0 24 -14.5 40.5t-35.5 16.5t-35.5 -16.5t-14.5 -40.5v-3q0 -13 -8.5 -21.5t-21.5 -8.5h-167q-13 0 -21.5 8.5t-8.5 21.5v50q0 33 31.5 56.5t76.5 23.5h350q45 0 77 -23.5t32 -56.5v-320zM376 127v13v70h-100v-83 q0 -24 14.5 -40.5t35.5 -16.5t35.5 16.5t14.5 40.5z" />
<glyph unicode="&#xe5;" d="M450 655q0 -51 -35.5 -87t-86.5 -36q-50 0 -86 36t-36 87q0 50 36 86t86 36q51 0 86.5 -36t35.5 -86zM616 80q0 -33 -32 -56.5t-77 -23.5h-362q-45 0 -77 23.5t-32 56.5v90q0 41 40 70.5t96 29.5h204v83q0 24 -14.5 40.5t-35.5 16.5t-35.5 -16.5t-14.5 -40.5v-3 q0 -13 -8.5 -21.5t-21.5 -8.5h-167q-13 0 -21.5 8.5t-8.5 21.5v50q0 33 31.5 56.5t76.5 23.5h350q45 0 77 -23.5t32 -56.5v-320zM373 655q0 18 -13 31t-32 13q-18 0 -31 -13t-13 -31q0 -19 13 -32t31 -13q19 0 32 13t13 32zM376 127v13v70h-100v-83q0 -24 14.5 -40.5 t35.5 -16.5t35.5 16.5t14.5 40.5z" />
<glyph unicode="&#xe6;" horiz-adv-x="976" d="M941 80q0 -37 -34.5 -58.5t-74.5 -21.5h-687q-40 0 -74.5 21.5t-34.5 58.5v110q0 37 34.5 58.5t74.5 21.5h231v83q0 23 -14 40t-36 17t-36 -17t-14 -40q0 -14 -8 -23.5t-22 -9.5h-157q-13 0 -21.5 9t-8.5 21v50q0 37 34 58.5t74 21.5h665q40 0 74.5 -21.5t34.5 -58.5v-95 q0 -37 -34.5 -58.5t-74.5 -21.5h-230v-98q0 -23 14 -40t36 -17t34.5 16t15.5 39q2 30 30 30h179q9 0 15.5 -4t9.5 -9.5t4.5 -15t1.5 -15.5t-0.5 -17t-0.5 -14zM702 285v68q0 23 -14 40t-36 17t-36 -17t-14 -40v-68h100zM376 127v83h-100v-83q0 -23 14 -40t36 -17t36 17 t14 40z" />
<glyph unicode="&#xe7;" horiz-adv-x="612" d="M576 80q0 -30 -26.5 -52.5t-66.5 -26.5h-40v-151q0 -16 -11 -26.5t-26 -10.5h-160q-16 0 -26.5 10.5t-10.5 26.5v30q0 16 10.5 27t26.5 11h39q29 0 49.5 18t21.5 44v20h-211q-45 0 -77 23.5t-32 56.5v319q0 33 32 56.5t77 23.5h322q45 0 77 -23.5t32 -56.5v-45 q0 -12 -8.5 -21t-21.5 -9h-160q-13 0 -21.5 9t-8.5 21q-1 23 -15.5 39t-34.5 16q-21 0 -35.5 -16.5t-14.5 -39.5v-226q0 -24 14.5 -40.5t35.5 -16.5q20 0 34.5 16t15.5 39q0 13 8.5 21.5t21.5 8.5h160q13 0 21.5 -8.5t8.5 -21.5v-45z" />
<glyph unicode="&#xe8;" d="M511 574l-4 -15q-8 -26 -46 -26h-266q-14 5 -21.5 18.5t-3.5 28.5l24 84q5 15 18 22.5t28 3.5l245 -70q15 -5 22.5 -18.5t3.5 -27.5zM616 80q0 -33 -32 -56.5t-77 -23.5h-362q-45 0 -77 23.5t-32 56.5v320q0 33 32 56.5t77 23.5h362q45 0 77 -23.5t32 -56.5v-95 q0 -33 -32 -56.5t-77 -23.5h-231v-98q0 -24 14.5 -40.5t35.5 -16.5q20 0 34.5 16t15.5 39q0 13 8.5 21.5t21.5 8.5h180q13 0 21.5 -8.5t8.5 -21.5v-45zM376 285v68q0 24 -14.5 40.5t-35.5 16.5t-35.5 -16.5t-14.5 -40.5v-68h100z" />
<glyph unicode="&#xe9;" d="M484 580q4 -15 -3.5 -29t-22.5 -18h-265q-39 0 -47 26l-4 15q-4 14 3.5 28t22.5 18l245 70q15 4 28.5 -3.5t18.5 -22.5zM616 80q0 -33 -32 -56.5t-77 -23.5h-362q-45 0 -77 23.5t-32 56.5v320q0 33 32 56.5t77 23.5h362q45 0 77 -23.5t32 -56.5v-95q0 -33 -32 -56.5 t-77 -23.5h-231v-98q0 -24 14.5 -40.5t35.5 -16.5q20 0 34.5 16t15.5 39q0 13 8.5 21.5t21.5 8.5h180q13 0 21.5 -8.5t8.5 -21.5v-45zM376 285v68q0 24 -14.5 40.5t-35.5 16.5t-35.5 -16.5t-14.5 -40.5v-68h100z" />
<glyph unicode="&#xea;" d="M499 569l-22 -37q-7 -13 -22.5 -17.5t-28.5 3.5l-95 82l-95 -82q-13 -8 -28.5 -3.5t-23.5 17.5l-21 37q-8 13 -3.5 28.5t17.5 22.5l133 77q9 5 21 5t21 -5l133 -77q13 -7 17.5 -22.5t-3.5 -28.5zM616 80q0 -33 -32 -56.5t-77 -23.5h-362q-45 0 -77 23.5t-32 56.5v320 q0 33 32 56.5t77 23.5h362q45 0 77 -23.5t32 -56.5v-95q0 -33 -32 -56.5t-77 -23.5h-231v-98q0 -24 14.5 -40.5t35.5 -16.5q20 0 34.5 16t15.5 39q0 13 8.5 21.5t21.5 8.5h180q13 0 21.5 -8.5t8.5 -21.5v-45zM376 285v68q0 24 -14.5 40.5t-35.5 16.5t-35.5 -16.5 t-14.5 -40.5v-68h100z" />
<glyph unicode="&#xeb;" d="M524 570q0 -16 -11 -27t-27 -11h-78q-15 0 -26 11t-11 27v42q0 16 11 27t26 11h78q16 0 27 -11t11 -27v-42zM285 570q0 -16 -11 -27t-27 -11h-78q-15 0 -26 11t-11 27v42q0 16 11 27t26 11h78q16 0 27 -11t11 -27v-42zM616 80q0 -33 -32 -56.5t-77 -23.5h-362 q-45 0 -77 23.5t-32 56.5v320q0 33 32 56.5t77 23.5h362q45 0 77 -23.5t32 -56.5v-95q0 -33 -32 -56.5t-77 -23.5h-231v-98q0 -24 14.5 -40.5t35.5 -16.5q20 0 34.5 16t15.5 39q0 13 8.5 21.5t21.5 8.5h180q13 0 21.5 -8.5t8.5 -21.5v-45zM376 285v68q0 24 -14.5 40.5 t-35.5 16.5t-35.5 -16.5t-14.5 -40.5v-68h100z" />
<glyph unicode="&#xec;" horiz-adv-x="314" d="M340 574l-4 -15q-8 -26 -47 -26h-265q-15 4 -22.5 18t-3.5 29l25 84q4 15 17.5 22.5t28.5 3.5l245 -70q15 -5 22.5 -18.5t3.5 -27.5zM276 30q0 -13 -8.5 -21.5t-21.5 -8.5h-180q-13 0 -21.5 8.5t-8.5 21.5v420q0 13 8.5 21.5t21.5 8.5h180q13 0 21.5 -8.5t8.5 -21.5v-420 z" />
<glyph unicode="&#xed;" horiz-adv-x="314" d="M315 580q4 -15 -3.5 -28.5t-22.5 -18.5h-265q-40 0 -46 26l-4 15q-5 14 2.5 28t22.5 18l246 70q14 4 27.5 -3.5t18.5 -22.5zM276 30q0 -13 -8.5 -21.5t-21.5 -8.5h-180q-13 0 -21.5 8.5t-8.5 21.5v420q0 13 8.5 21.5t21.5 8.5h180q13 0 21.5 -8.5t8.5 -21.5v-420z" />
<glyph unicode="&#xee;" horiz-adv-x="314" d="M325 569l-22 -37q-7 -13 -22.5 -17.5t-28.5 3.5l-95 82l-95 -82q-13 -8 -28.5 -3.5t-23.5 17.5l-21 37q-8 13 -3.5 28.5t17.5 22.5l133 77q9 5 21 5t21 -5l133 -77q13 -7 17.5 -22.5t-3.5 -28.5zM276 30q0 -13 -8.5 -21.5t-21.5 -8.5h-180q-13 0 -21.5 8.5t-8.5 21.5v420 q0 13 8.5 21.5t21.5 8.5h180q13 0 21.5 -8.5t8.5 -21.5v-420z" />
<glyph unicode="&#xef;" horiz-adv-x="314" d="M356 570q0 -16 -11 -27t-27 -11h-78q-16 0 -26.5 11t-10.5 27v42q0 16 10.5 27t26.5 11h78q16 0 27 -11t11 -27v-42zM117 570q0 -16 -11 -27t-27 -11h-78q-16 0 -26.5 11t-10.5 27v42q0 16 10.5 27t26.5 11h78q16 0 27 -11t11 -27v-42zM276 30q0 -13 -8.5 -21.5 t-21.5 -8.5h-180q-13 0 -21.5 8.5t-8.5 21.5v420q0 13 8.5 21.5t21.5 8.5h180q13 0 21.5 -8.5t8.5 -21.5v-420z" />
<glyph unicode="&#xf0;" horiz-adv-x="655" d="M640 389q0 -15 -11 -26t-27 -11v-272q0 -33 -31.5 -56.5t-76.5 -23.5h-349q-45 0 -77 23.5t-32 56.5v120q0 41 40 70.5t96 29.5h199v52h-69q-16 0 -27 11t-11 26v41q0 16 11 27t27 11h69v5q0 24 -14.5 40.5t-35.5 16.5v70h173q45 0 76.5 -23.5t31.5 -56.5v-52 q16 0 27 -11t11 -27v-41zM371 127v113h-100v-113q0 -24 14.5 -40.5t35.5 -16.5t35.5 16.5t14.5 40.5z" />
<glyph unicode="&#xf1;" d="M514 626q-20 -67 -78 -89q-49 -18 -101 16q-8 5 -25 16q-28 20 -41 17q-13 -5 -18 -23q-5 -15 -17 -21q-13 -8 -26 -3l-24 7q-24 6 -24 33q0 7 1 10q21 69 77 89q52 18 102 -16q8 -4 25 -16q28 -20 40 -17q13 4 19 24q4 14 17 20q12 8 26 3l23 -7q14 -4 21 -16.5t3 -26.5 zM616 30q0 -13 -8.5 -21.5t-21.5 -8.5h-180q-13 0 -21.5 8.5t-8.5 21.5v320v3q0 24 -14.5 40.5t-35.5 16.5t-35.5 -16.5t-14.5 -40.5v-323q0 -13 -8.5 -21.5t-21.5 -8.5h-180q-13 0 -21.5 8.5t-8.5 21.5v420q0 13 8.5 21.5t21.5 8.5h180l23 -23q33 23 77 23h161 q45 0 77 -23.5t32 -56.5v-370z" />
<glyph unicode="&#xf2;" d="M508 574l-4 -15q-6 -26 -46 -26h-265q-15 5 -22.5 18.5t-3.5 28.5l24 84q5 15 18.5 22.5t28.5 3.5l245 -70q15 -4 22.5 -18t2.5 -28zM616 80q0 -33 -32 -56.5t-77 -23.5h-362q-45 0 -77 23.5t-32 56.5v320q0 33 32 56.5t77 23.5h362q45 0 77 -23.5t32 -56.5v-320z M376 127v226q0 24 -14.5 40.5t-35.5 16.5t-35.5 -16.5t-14.5 -40.5v-226q0 -24 14.5 -40.5t35.5 -16.5t35.5 16.5t14.5 40.5z" />
<glyph unicode="&#xf3;" d="M489 580q4 -15 -3.5 -28.5t-22.5 -18.5h-265q-40 0 -46 26l-4 15q-5 14 2.5 28t22.5 18l246 70q15 4 28 -3.5t18 -22.5zM616 80q0 -33 -32 -56.5t-77 -23.5h-362q-45 0 -77 23.5t-32 56.5v320q0 33 32 56.5t77 23.5h362q45 0 77 -23.5t32 -56.5v-320zM376 127v226 q0 24 -14.5 40.5t-35.5 16.5t-35.5 -16.5t-14.5 -40.5v-226q0 -24 14.5 -40.5t35.5 -16.5t35.5 16.5t14.5 40.5z" />
<glyph unicode="&#xf4;" d="M499 569l-22 -37q-7 -13 -22.5 -17.5t-28.5 3.5l-95 82l-95 -82q-13 -8 -28.5 -3.5t-23.5 17.5l-21 37q-8 13 -3.5 28.5t17.5 22.5l133 77q9 5 21 5t21 -5l133 -77q13 -7 17.5 -22.5t-3.5 -28.5zM616 80q0 -33 -32 -56.5t-77 -23.5h-362q-45 0 -77 23.5t-32 56.5v320 q0 33 32 56.5t77 23.5h362q45 0 77 -23.5t32 -56.5v-320zM376 127v226q0 24 -14.5 40.5t-35.5 16.5t-35.5 -16.5t-14.5 -40.5v-226q0 -24 14.5 -40.5t35.5 -16.5t35.5 16.5t14.5 40.5z" />
<glyph unicode="&#xf5;" d="M516 626q-18 -66 -77 -89q-50 -18 -101 16q-8 5 -25 16q-28 20 -41 17q-13 -5 -18 -23q-5 -15 -17 -21q-13 -8 -27 -3l-23 7q-25 7 -25 33q0 4 2 10q19 68 77 89q51 18 102 -16q7 -4 24 -16q29 -20 41 -17q12 4 18 24q5 14 17 20q13 7 27 3l23 -7q14 -4 21 -16.5t2 -26.5 zM616 80q0 -33 -32 -56.5t-77 -23.5h-362q-45 0 -77 23.5t-32 56.5v320q0 33 32 56.5t77 23.5h362q45 0 77 -23.5t32 -56.5v-320zM376 127v226q0 24 -14.5 40.5t-35.5 16.5t-35.5 -16.5t-14.5 -40.5v-226q0 -24 14.5 -40.5t35.5 -16.5t35.5 16.5t14.5 40.5z" />
<glyph unicode="&#xf6;" d="M525 570q0 -16 -11 -27t-27 -11h-78q-15 0 -26 11t-11 27v42q0 16 11 27t26 11h78q16 0 27 -11t11 -27v-42zM286 570q0 -16 -11 -27t-27 -11h-78q-15 0 -26 11t-11 27v42q0 16 11 27t26 11h78q16 0 27 -11t11 -27v-42zM616 80q0 -33 -32 -56.5t-77 -23.5h-362 q-45 0 -77 23.5t-32 56.5v320q0 33 32 56.5t77 23.5h362q45 0 77 -23.5t32 -56.5v-320zM376 127v226q0 24 -14.5 40.5t-35.5 16.5t-35.5 -16.5t-14.5 -40.5v-226q0 -24 14.5 -40.5t35.5 -16.5t35.5 16.5t14.5 40.5z" />
<glyph unicode="&#xf7;" horiz-adv-x="497" d="M325 456q0 -15 -11 -26t-26 -11h-79q-15 0 -26 11t-11 26v38q0 15 11 26t26 11h79q15 0 26 -11t11 -26v-38zM461 269q0 -16 -11 -27t-26 -11h-350q-16 0 -27 11t-11 27v62q0 16 11 27t27 11h350q15 0 26 -11t11 -27v-62zM325 106q0 -15 -11 -26t-26 -11h-79q-15 0 -26 11 t-11 26v38q0 15 11 26t26 11h79q15 0 26 -11t11 -26v-38z" />
<glyph unicode="&#xf8;" horiz-adv-x="612" d="M576 80q0 -33 -32 -56.5t-77 -23.5h-322q-45 0 -77 23.5t-32 56.5v320q0 33 32 56.5t77 23.5h322q45 0 77 -23.5t32 -56.5v-320zM356 352v1q0 24 -14.5 40.5t-35.5 16.5t-35.5 -16.5t-14.5 -40.5v-101zM356 127v101l-100 -100v-1q0 -24 14.5 -40.5t35.5 -16.5t35.5 16.5 t14.5 40.5z" />
<glyph unicode="&#xf9;" d="M503 574l-4 -15q-8 -26 -46 -26h-266q-15 4 -22.5 18t-2.5 29l24 84q4 15 17.5 22.5t28.5 3.5l245 -70q15 -5 22.5 -18.5t3.5 -27.5zM616 30q0 -13 -8.5 -21.5t-21.5 -8.5h-180l-23 23q-33 -23 -77 -23h-161q-45 0 -77 23.5t-32 56.5v370q0 13 8.5 21.5t21.5 8.5h180 q13 0 21.5 -8.5t8.5 -21.5v-323q0 -24 14.5 -40.5t35.5 -16.5t35.5 16.5t14.5 40.5v323q0 13 8.5 21.5t21.5 8.5h180q13 0 21.5 -8.5t8.5 -21.5v-420z" />
<glyph unicode="&#xfa;" d="M495 580q4 -15 -3.5 -29t-22.5 -18h-265q-39 0 -47 26l-4 15q-4 14 3.5 27.5t22.5 18.5l245 70q15 4 28.5 -3.5t17.5 -22.5zM616 30q0 -13 -8.5 -21.5t-21.5 -8.5h-180l-23 23q-33 -23 -77 -23h-161q-45 0 -77 23.5t-32 56.5v370q0 13 8.5 21.5t21.5 8.5h180 q13 0 21.5 -8.5t8.5 -21.5v-323q0 -24 14.5 -40.5t35.5 -16.5t35.5 16.5t14.5 40.5v323q0 13 8.5 21.5t21.5 8.5h180q13 0 21.5 -8.5t8.5 -21.5v-420z" />
<glyph unicode="&#xfb;" d="M493 569l-21 -37q-7 -13 -22.5 -17.5t-28.5 3.5l-95 82l-96 -82q-13 -8 -28.5 -3.5t-22.5 17.5l-21 37q-8 14 -4 28.5t18 22.5l133 77q7 5 21 5q12 0 20 -5l134 -77q13 -8 17 -22.5t-4 -28.5zM616 30q0 -13 -8.5 -21.5t-21.5 -8.5h-180l-23 23q-33 -23 -77 -23h-161 q-45 0 -77 23.5t-32 56.5v370q0 13 8.5 21.5t21.5 8.5h180q13 0 21.5 -8.5t8.5 -21.5v-323q0 -24 14.5 -40.5t35.5 -16.5t35.5 16.5t14.5 40.5v323q0 13 8.5 21.5t21.5 8.5h180q13 0 21.5 -8.5t8.5 -21.5v-420z" />
<glyph unicode="&#xfc;" d="M525 570q0 -16 -11 -27t-27 -11h-78q-15 0 -26 11t-11 27v42q0 16 11 27t26 11h78q16 0 27 -11t11 -27v-42zM286 570q0 -16 -11 -27t-27 -11h-78q-15 0 -26 11t-11 27v42q0 16 11 27t26 11h78q16 0 27 -11t11 -27v-42zM616 30q0 -13 -8.5 -21.5t-21.5 -8.5h-180l-23 23 q-33 -23 -77 -23h-161q-45 0 -77 23.5t-32 56.5v370q0 13 8.5 21.5t21.5 8.5h180q13 0 21.5 -8.5t8.5 -21.5v-323q0 -24 14.5 -40.5t35.5 -16.5t35.5 16.5t14.5 40.5v323q0 13 8.5 21.5t21.5 8.5h180q13 0 21.5 -8.5t8.5 -21.5v-420z" />
<glyph unicode="&#xfd;" d="M501 580q5 -15 -2.5 -29t-22.5 -18h-266q-38 0 -46 26l-4 15q-4 14 3.5 27.5t22.5 18.5l245 70q15 4 28.5 -3.5t17.5 -22.5zM616 -82q0 -34 -32 -57t-77 -23h-362q-45 0 -77 23t-32 57v30q0 12 8.5 21t21.5 9h180q13 0 21.5 -9t8.5 -21v-14q0 -23 14.5 -39.5t35.5 -16.5 t35.5 16.5t14.5 39.5v116h-231q-45 0 -77 23.5t-32 56.5v320q0 13 8.5 21.5t21.5 8.5h180q13 0 21.5 -8.5t8.5 -21.5v-293q0 -24 14.5 -40.5t35.5 -16.5t35.5 16.5t14.5 40.5v293q0 13 8.5 21.5t21.5 8.5h180q13 0 21.5 -8.5t8.5 -21.5v-532z" />
<glyph unicode="&#xfe;" horiz-adv-x="666" d="M630 100q0 -41 -40 -70.5t-96 -29.5h-133q-50 0 -87 24v-124q0 -16 -11 -27t-27 -11h-162q-16 0 -27 11t-11 27v675q0 16 11 26.5t27 10.5h162q16 0 27 -10.5t11 -26.5v-124q37 24 87 24h133q56 0 96 -29.5t40 -70.5v-275zM399 158v159q0 29 -18.5 49.5t-44.5 20.5 t-44 -20.5t-18 -49.5v-159q0 -29 18 -49.5t44 -20.5t44.5 20.5t18.5 49.5z" />
<glyph unicode="&#xff;" d="M522 570q0 -16 -11 -27t-26 -11h-78q-16 0 -27 11t-11 27v42q0 16 11 27t27 11h78q15 0 26 -11t11 -27v-42zM283 570q0 -16 -11 -27t-26 -11h-78q-16 0 -27 11t-11 27v42q0 16 11 27t27 11h78q15 0 26 -11t11 -27v-42zM616 -82q0 -34 -32 -57t-77 -23h-362q-45 0 -77 23 t-32 57v30q0 12 8.5 21t21.5 9h180q13 0 21.5 -9t8.5 -21v-14q0 -23 14.5 -39.5t35.5 -16.5t35.5 16.5t14.5 39.5v116h-231q-45 0 -77 23.5t-32 56.5v320q0 13 8.5 21.5t21.5 8.5h180q13 0 21.5 -8.5t8.5 -21.5v-293q0 -24 14.5 -40.5t35.5 -16.5t35.5 16.5t14.5 40.5v293 q0 13 8.5 21.5t21.5 8.5h180q13 0 21.5 -8.5t8.5 -21.5v-532z" />
<glyph unicode="&#x131;" horiz-adv-x="312" d="M276 30q0 -13 -8.5 -21.5t-21.5 -8.5h-180q-13 0 -21.5 8.5t-8.5 21.5v420q0 13 8.5 21.5t21.5 8.5h180q13 0 21.5 -8.5t8.5 -21.5v-420z" />
<glyph unicode="&#x141;" horiz-adv-x="663" d="M627 38q0 -16 -11 -27t-26 -11h-515q-16 0 -26.5 11t-10.5 27v199q-14 -1 -23.5 7.5t-9.5 22.5v41q0 14 9.5 27t23.5 17v211q0 15 10.5 26t26.5 11h215q15 0 26 -11t11 -26v-136l5 1q16 3 27 -5.5t11 -24.5v-40q0 -16 -11 -29t-27 -17l-5 -1v-186h263q15 0 26 -11t11 -26 v-50z" />
<glyph unicode="&#x142;" horiz-adv-x="382" d="M412 358q0 -16 -11 -29t-27 -17l-5 -1v-273q0 -16 -11 -27t-26 -11h-212q-16 0 -26.5 11t-10.5 27v199q-14 -1 -23.5 7.5t-9.5 22.5v41q0 14 9.5 27t23.5 17v211q0 16 10.5 27t26.5 11h212q15 0 26 -11t11 -27v-136l5 1q16 3 27 -5.5t11 -24.5v-40z" />
<glyph unicode="&#x152;" horiz-adv-x="1131" d="M1095 37q0 -15 -10.5 -26t-25.5 -11h-887q-49 0 -92.5 27t-43.5 73v400q0 46 43.5 73t92.5 27h887q13 0 21.5 -5.5t11.5 -18t3.5 -19.5t0 -24.5t-0.5 -19.5q0 -15 -10.5 -26.5t-25.5 -11.5h-291v-122h195q6 0 11.5 -1.5t9 -4.5t6.5 -5.5t4.5 -8.5t2.5 -9t1.5 -10.5 t0.5 -10v-11v-9.5q0 -15 -10.5 -26t-25.5 -11h-195v-121h291q13 0 21.5 -5.5t11.5 -18t3.5 -20t0 -25t-0.5 -19.5zM471 158v284q0 28 -17.5 49.5t-44.5 21.5t-45 -21.5t-18 -49.5v-284q0 -28 18 -49t45 -21t44.5 21.5t17.5 48.5z" />
<glyph unicode="&#x153;" horiz-adv-x="978" d="M942 80q0 -37 -34.5 -58.5t-74.5 -21.5h-688q-40 0 -74.5 21.5t-34.5 58.5v320q0 37 34.5 58.5t74.5 21.5h688q40 0 74.5 -21.5t34.5 -58.5v-95q0 -37 -34.5 -58.5t-74.5 -21.5h-231v-98q0 -23 14 -40t36 -17q40 0 50 55q5 30 30 30h180q30 0 30 -30v-45zM702 285v68 q0 23 -14 40t-36 17t-36 -17t-14 -40v-68h100zM376 127v226q0 23 -14 40t-36 17t-36 -17t-14 -40v-226q0 -23 14 -40t36 -17t36 17t14 40z" />
<glyph unicode="&#x160;" horiz-adv-x="777" d="M558 801q8 -13 3.5 -28t-17.5 -23l-133 -77q-9 -5 -21 -5t-21 5l-133 77q-13 8 -17.5 23t3.5 28l21 37q8 13 23.5 17.5t28.5 -3.5l95 -82l95 82q13 8 28.5 3.5t22.5 -17.5zM741 139v-39q0 -41 -40 -70.5t-96 -29.5h-433q-56 0 -96 29.5t-40 70.5v75q0 16 11 27t27 11h214 q16 0 27 -11t11 -27v-17q0 -29 18 -49.5t44 -20.5t44.5 20.5t18.5 49.5q0 48 -22 72q-11 13 -53 28q-22 8 -78 19.5t-94 23.5q-33 10 -51 16t-44 19.5t-39.5 28.5t-23.5 39.5t-10 56.5v39q0 41 40 70.5t96 29.5h433q56 0 96 -29.5t40 -70.5v-75q0 -16 -11 -26.5t-26 -10.5 h-215q-16 0 -27 10.5t-11 26.5v17q0 29 -18 50t-44 21t-44.5 -21t-18.5 -50q0 -48 22 -72q14 -16 53 -28q27 -9 85 -20t92 -22q29 -9 37.5 -11.5t32 -12t32 -15.5t24 -19t21 -26.5t11 -33t5.5 -43.5z" />
<glyph unicode="&#x161;" horiz-adv-x="642" d="M491 651q8 -13 3.5 -28t-17.5 -23l-134 -77q-7 -5 -20 -5q-12 0 -21 5l-133 77q-13 8 -17.5 23t3.5 28l21 37q8 13 23.5 17.5t28.5 -3.5l95 -82l95 82q13 8 28.5 3.5t22.5 -17.5zM606 112v-32q0 -33 -32 -56.5t-77 -23.5h-352q-45 0 -77 23.5t-32 56.5v60q0 13 8.5 21.5 t21.5 8.5h175q13 0 21.5 -8.5t8.5 -21.5v-13q0 -24 14.5 -40.5t35.5 -16.5t35.5 16.5t14.5 40.5q0 41 -17 57q-5 4 -37 12.5t-80 19.5t-67 16q-32 8 -51.5 15.5t-41 22.5t-31.5 39t-10 59v32q0 33 32 56.5t77 23.5h352q45 0 77 -23.5t32 -56.5v-60q0 -13 -8.5 -21.5 t-21.5 -8.5h-175q-13 0 -21.5 8.5t-8.5 21.5v13q0 24 -14.5 40.5t-35.5 16.5t-35.5 -16.5t-14.5 -40.5q0 -42 17 -57q6 -4 38 -12t77.5 -18.5t68.5 -17.5q34 -10 51.5 -17t40 -21.5t32.5 -38.5t10 -59z" />
<glyph unicode="&#x178;" horiz-adv-x="777" d="M584 707q0 -15 -11 -26t-26 -11h-78q-16 0 -27 11t-11 26v43q0 16 11 27t27 11h78q15 0 26 -11t11 -27v-43zM345 707q0 -15 -11 -26t-26 -11h-78q-16 0 -27 11t-11 26v43q0 16 11 27t27 11h78q15 0 26 -11t11 -27v-43zM741 100q0 -41 -40 -70.5t-96 -29.5h-433 q-56 0 -96 29.5t-40 70.5v37q0 16 11 27t27 11h215q15 0 26 -11t11 -27v-16q0 -29 18.5 -50t44.5 -21t44 20.5t18 50.5v108h-279q-56 0 -96 29.5t-40 70.5v233q0 16 11 27t27 11h215q15 0 26 -11t11 -27v-200q0 -29 18.5 -49.5t44.5 -20.5t44 20.5t18 49.5v200q0 16 11 27 t27 11h215q15 0 26 -11t11 -27v-462z" />
<glyph unicode="&#x17d;" horiz-adv-x="662" d="M522 801q8 -13 4 -28t-17 -23l-134 -77q-7 -5 -20 -5t-21 5l-133 77q-14 8 -18 23t4 28l21 37q7 13 22.5 17.5t28.5 -3.5l96 -82l95 82q13 8 28.5 3.5t22.5 -17.5zM626 38q0 -16 -11 -27t-26 -11h-518q-15 0 -25 11t-10 26v91q0 12 9 23l7 8l272 317h-250q-16 0 -27 10.5 t-11 26.5v49q0 16 11 27t27 11h522q13 -2 21.5 -13t8.5 -24v-90q0 -13 -7 -21l-8 -9l-272 -319h250q15 0 26 -10.5t11 -26.5v-49z" />
<glyph unicode="&#x17e;" horiz-adv-x="632" d="M498 651q8 -13 3.5 -28t-17.5 -23l-134 -77q-8 -5 -20 -5t-21 5l-133 77q-13 8 -17.5 23t3.5 28l21 37q8 13 23.5 17.5t28.5 -3.5l95 -82l95 82q13 8 28.5 3.5t22.5 -17.5zM596 30q0 -13 -8.5 -21.5t-21.5 -8.5h-502q-12 0 -20 9t-8 21v72q0 12 7 19l6 6l259 253h-242 q-13 0 -21.5 9t-8.5 21v40q0 13 8.5 21.5t21.5 8.5h506q24 -5 24 -29v-73q0 -9 -5 -17l-7 -6l-278 -255h260q13 0 21.5 -9t8.5 -21v-40z" />
<glyph unicode="&#x192;" horiz-adv-x="570" d="M534 629q0 -12 -10 -20.5t-25 -8.5h-52q-26 0 -44.5 -21t-18.5 -50v-142h63q14 0 24.5 -8.5t10.5 -20.5v-29q0 -12 -10.5 -20.5t-24.5 -8.5h-63v-275q0 -52 -49.5 -88.5t-119.5 -36.5h-144q-14 0 -24.5 8.5t-10.5 20.5v29q0 12 10.5 20.5t24.5 8.5h28q26 0 44 21t18 50 v242h-50q-14 0 -24.5 8.5t-10.5 20.5v29q0 12 10.5 20.5t24.5 8.5h50v175q0 52 50 88.5t120 36.5h168q15 0 25 -8.5t10 -20.5v-29z" />
<glyph unicode="&#x2c6;" horiz-adv-x="572" d="M454 569l-22 -37q-7 -13 -22.5 -17.5t-28.5 3.5l-95 82l-95 -82q-13 -8 -28.5 -3.5t-22.5 17.5l-22 37q-8 13 -3.5 28.5t17.5 22.5l133 77q9 5 21 5t21 -5l133 -77q13 -7 17.5 -22.5t-3.5 -28.5z" />
<glyph unicode="&#x2c7;" horiz-adv-x="572" d="M454 651q8 -13 3.5 -28t-17.5 -23l-133 -77q-9 -5 -21 -5t-21 5l-133 77q-13 8 -17.5 23t3.5 28l22 37q7 13 22.5 17.5t28.5 -3.5l95 -82l95 82q13 8 28.5 3.5t22.5 -17.5z" />
<glyph unicode="&#x2d8;" horiz-adv-x="572" d="M455 664q5 -14 -3 -27l-2 -4q-22 -40 -66.5 -64t-97.5 -24t-97.5 24t-66.5 64l-2 4q-8 13 -3 27t17 20l26 15q13 7 27 2.5t21 -17.5l2 -4q7 -14 28 -24.5t48 -10.5t48 10.5t28 24.5l2 4q7 13 21 17.5t27 -2.5l26 -15q12 -6 17 -20z" />
<glyph unicode="&#x2d9;" horiz-adv-x="572" d="M363 570q0 -16 -11 -27t-27 -11h-78q-16 0 -27 11t-11 27v42q0 16 11 27t27 11h78q16 0 27 -11t11 -27v-42z" />
<glyph unicode="&#x2da;" horiz-adv-x="572" d="M408 655q0 -51 -35.5 -87t-86.5 -36t-86.5 36t-35.5 87q0 50 35.5 86t86.5 36t86.5 -36t35.5 -86zM330 655q0 18 -12.5 31t-31.5 13t-31.5 -13t-12.5 -31q0 -19 12.5 -32t31.5 -13t31.5 13t12.5 32z" />
<glyph unicode="&#x2db;" horiz-adv-x="572" d="M417 -162q0 -16 -11 -27t-26 -11h-188q-15 0 -26 11t-11 27v162h87v-20q1 -26 21.5 -44t49.5 -18h67q15 0 26 -11t11 -27v-42z" />
<glyph unicode="&#x2dc;" horiz-adv-x="572" d="M462 626q-18 -66 -77 -89q-49 -18 -102 16q-7 5 -24 16q-28 20 -41 17q-13 -5 -18 -23q-5 -15 -17 -21q-13 -8 -27 -3l-23 7q-25 7 -25 33q0 4 2 10q19 68 77 89q51 18 102 -16q7 -4 24 -16q28 -20 41 -17q12 5 18 24q5 14 17 20q13 8 27 3l23 -7q14 -4 20.5 -17t2.5 -26 z" />
<glyph unicode="&#x2dd;" horiz-adv-x="572" d="M419 563l-51 -188q-10 -37 -26 -37h-17q-11 0 -19 10.5t-8 26.5v188q0 15 8 26t19 11h68q11 0 18.5 -11t7.5 -26zM274 563l-51 -188q-10 -37 -27 -37h-17q-11 0 -18.5 10.5t-7.5 26.5v188q0 15 7.5 26t18.5 11h68q11 0 19 -11t8 -26z" />
<glyph unicode="&#x394;" horiz-adv-x="517" d="M479 45q5 -15 -3 -30t-32 -15h-371q-24 0 -32 15t-3 30l177 518q13 37 38 37h1h10q25 0 38 -37z" />
<glyph unicode="&#x3a9;" d="M616 30q0 -13 -8.5 -21.5t-21.5 -8.5h-180l-23 23q-33 -23 -77 -23h-161q-45 0 -77 23.5t-32 56.5v320q0 33 32 56.5t77 23.5h161q44 0 77 -23l23 23h180q13 0 21.5 -8.5t8.5 -21.5v-420zM376 127v226q0 24 -14.5 40.5t-35.5 16.5t-35.5 -16.5t-14.5 -40.5v-226 q0 -24 14.5 -40.5t35.5 -16.5t35.5 16.5t14.5 40.5z" />
<glyph unicode="&#x3c0;" horiz-adv-x="785" d="M749 29q0 -12 -10.5 -20.5t-25.5 -8.5h-103q-70 0 -119.5 36.5t-49.5 88.5v206h-97v-206q0 -52 -50 -88.5t-120 -36.5h-103q-14 0 -24.5 8.5t-10.5 20.5v29q0 12 10.5 20.5t24.5 8.5h13q26 0 44.5 21t18.5 50v173h-52q-15 0 -26 11t-11 27v106q0 16 11 27t26 11h594 q16 0 27 -11t11 -27v-106q0 -16 -11 -27t-27 -11h-51v-173q0 -29 18 -50t44 -21h13q15 0 25.5 -8.5t10.5 -20.5v-29z" />
<glyph unicode="&#x2013;" horiz-adv-x="603" d="M567 266q0 -16 -11 -27t-26 -11h-456q-16 0 -27 11t-11 27v68q0 16 11 27t27 11h456q15 0 26 -11t11 -27v-68z" />
<glyph unicode="&#x2014;" horiz-adv-x="741" d="M705 266q0 -16 -11 -27t-27 -11h-593q-16 0 -27 11t-11 27v68q0 16 11 27t27 11h593q16 0 27 -11t11 -27v-68z" />
<glyph unicode="&#x2018;" horiz-adv-x="245" d="M209 375q0 -16 -11 -26.5t-27 -10.5h-97q-16 0 -27 10.5t-11 26.5l73 188q13 37 37 37h25q16 0 27 -11t11 -26v-188z" />
<glyph unicode="&#x2019;" horiz-adv-x="245" d="M209 563l-73 -188q-8 -19 -15.5 -28t-21.5 -9h-25q-16 0 -27 10.5t-11 26.5v188q0 15 11 26t27 11h97q16 0 27 -11t11 -26z" />
<glyph unicode="&#x201a;" horiz-adv-x="245" d="M209 100l-73 -187q-8 -20 -15.5 -29t-21.5 -9h-25q-16 0 -27 11t-11 27v187q0 16 11 27t27 11h97q16 0 27 -11t11 -27z" />
<glyph unicode="&#x201c;" horiz-adv-x="453" d="M417 375q0 -16 -11 -26.5t-26 -10.5h-98q-16 0 -27 10.5t-11 26.5l73 188q8 19 16 28t22 9h25q15 0 26 -11t11 -26v-188zM209 375q0 -16 -11 -26.5t-27 -10.5h-97q-16 0 -27 10.5t-11 26.5l73 188q13 37 37 37h25q16 0 27 -11t11 -26v-188z" />
<glyph unicode="&#x201d;" horiz-adv-x="453" d="M417 563l-73 -188q-13 -37 -37 -37h-25q-16 0 -27 10.5t-11 26.5v188q0 15 11 26t27 11h98q15 0 26 -11t11 -26zM209 563l-73 -188q-8 -19 -15.5 -28t-21.5 -9h-25q-16 0 -27 10.5t-11 26.5v188q0 15 11 26t27 11h97q16 0 27 -11t11 -26z" />
<glyph unicode="&#x201e;" horiz-adv-x="453" d="M417 100l-73 -187q-7 -20 -14.5 -29t-22.5 -9h-25q-16 0 -27 11t-11 27v187q0 16 11 27t27 11h98q15 0 26 -11t11 -27zM209 100l-73 -187q-8 -20 -15.5 -29t-21.5 -9h-25q-16 0 -27 11t-11 27v187q0 16 11 27t27 11h97q16 0 27 -11t11 -27z" />
<glyph unicode="&#x2020;" horiz-adv-x="535" d="M499 320q0 -16 -11 -27t-27 -11l-137 27l30 -246q0 -16 -11 -27t-27 -11h-98q-15 0 -26 11t-11 27l30 246l-137 -27q-16 0 -27 11t-11 27v98q0 15 11 26t27 11l133 -26l-26 134q0 15 11 26t26 11h98q16 0 27 -11t11 -26l-26 -134l133 26q16 0 27 -11t11 -26v-98z" />
<glyph unicode="&#x2021;" horiz-adv-x="535" d="M499 82q0 -15 -11 -26t-27 -11l-133 26l26 -133q0 -16 -11 -27t-27 -11h-98q-15 0 -26 11t-11 27l26 133l-133 -26q-16 0 -27 11t-11 26v98q0 16 11 27t27 11l137 -27l-7 59l7 59l-137 -27q-16 0 -27 11t-11 27v98q0 15 11 26t27 11l133 -26l-26 134q0 15 11 26t26 11h98 q16 0 27 -11t11 -26l-26 -134l133 26q16 0 27 -11t11 -26v-98q0 -16 -11 -27t-27 -11l-137 27l7 -59l-7 -59l137 27q16 0 27 -11t11 -27v-98z" />
<glyph unicode="&#x2022;" horiz-adv-x="372" d="M336 300q0 -62 -44 -106t-106 -44t-106 44t-44 106t44 106t106 44t106 -44t44 -106z" />
<glyph unicode="&#x2026;" horiz-adv-x="797" d="M761 38q0 -16 -11 -27t-26 -11h-100q-16 0 -27 11t-11 27v62q0 16 11 27t27 11h100q15 0 26 -11t11 -27v-62zM486 38q0 -16 -11 -27t-26 -11h-100q-16 0 -27 11t-11 27v62q0 16 11 27t27 11h100q15 0 26 -11t11 -27v-62zM211 38q0 -16 -11 -27t-26 -11h-100q-16 0 -27 11 t-11 27v62q0 16 11 27t27 11h100q15 0 26 -11t11 -27v-62z" />
<glyph unicode="&#x2030;" horiz-adv-x="1364" d="M1328 125q0 -52 -50 -88.5t-120 -36.5h-66q-63 0 -109 30q-47 -30 -110 -30h-66q-70 0 -120 36.5t-50 88.5v133q0 52 50 88.5t120 36.5h66q62 0 110 -29q47 29 109 29h66q70 0 120 -36.5t50 -88.5v-133zM799 600l-395 -600q-10 -16 -28 -26.5t-34 -10.5h-50 q-16 0 -19.5 10.5t6.5 26.5l395 600q11 16 28.5 27t33.5 11h50q16 0 19.5 -11t-6.5 -27zM441 342q0 -52 -50 -88.5t-120 -36.5h-65q-70 0 -120 36.5t-50 88.5v133q0 52 50 88.5t120 36.5h65q70 0 120 -36.5t50 -88.5v-133zM1208 158v67q0 29 -18 50t-44 21h-36 q-26 0 -44 -21t-18 -50v-67q0 -29 18 -49.5t44 -20.5v-1h36v1q26 0 44 20.5t18 49.5zM923 158v67q0 29 -18.5 50t-44.5 21h-35q-26 0 -44.5 -21t-18.5 -50v-67q0 -29 18.5 -49.5t44.5 -20.5v-1h35v1q26 0 44.5 20.5t18.5 49.5zM321 375v67q0 29 -18 50t-44 21h-36 q-26 0 -44 -21t-18 -50v-67q0 -29 18 -50t44 -21h36q26 0 44 21t18 50z" />
<glyph unicode="&#x2039;" horiz-adv-x="382" d="M339 126q10 -16 6.5 -27t-19.5 -11h-113q-15 0 -34 11q-18 12 -28 27l-115 174l115 174q10 15 28 27q19 11 34 11h113q16 0 19.5 -11t-6.5 -27l-115 -174z" />
<glyph unicode="&#x203a;" horiz-adv-x="382" d="M346 300l-115 -174q-8 -14 -28 -27q-17 -11 -34 -11h-113q-15 0 -19 11t6 27l115 174l-115 174q-10 16 -6 27t19 11h113q17 0 34 -11q20 -13 28 -27z" />
<glyph unicode="&#x2044;" horiz-adv-x="612" d="M610 600l-395 -600q-10 -16 -28.5 -26.5t-33.5 -10.5h-138q-15 0 -19 10.5t6 26.5l395 600q10 16 28.5 27t33.5 11h138q15 0 19 -11t-6 -27z" />
<glyph unicode="&#x2122;" horiz-adv-x="1014" d="M978 240q0 -10 -7 -17t-17 -7h-98q-10 0 -17 7t-7 17v259q0 19 -11.5 32t-28.5 13q-14 0 -25 -10t-14 -25v-269q0 -10 -7 -17t-17 -7h-74q-10 0 -17 7t-7 17v259q0 19 -11.5 32t-28.5 13t-28.5 -13t-11.5 -32v-259q0 -10 -7 -17t-17 -7h-98q-10 0 -17 7t-7 17v336 q0 10 7 17t17 7h98l19 -19q24 19 61 19h59q44 0 71 -27q27 27 71 27h83q36 0 61.5 -19t25.5 -45v-296zM376 280q0 -26 -25.5 -45t-61.5 -19h-166q-36 0 -61.5 19t-25.5 45v296q0 10 7 17t17 7h106q10 0 17 -7t7 -17v-63h162q10 0 17 -7t7 -17v-19q0 -10 -7 -17t-17 -7h-162 v-129q0 -19 11.5 -32t28.5 -13q16 0 28 13t12 31q0 10 7 17t17 7h58q10 0 17 -7t7 -17v-36z" />
<glyph unicode="&#x2202;" horiz-adv-x="502" d="M547 520v-45q0 -13 -8.5 -21.5t-21.5 -8.5h-151q-13 0 -21.5 8.5t-8.5 21.5q-1 23 -15.5 39t-34.5 16q-21 0 -35.5 -16.5t-14.5 -40.5v-83h219q12 0 21 -8.5t9 -21.5v-24q0 -13 -9 -21.5t-21 -8.5h-219v-276q0 -13 -8.5 -21.5t-21.5 -8.5h-180q-13 0 -21.5 8.5t-8.5 21.5 v490q0 33 32 56.5t77 23.5h333q45 0 77 -23.5t32 -56.5z" />
<glyph unicode="&#x220f;" horiz-adv-x="785" d="M749 29q0 -12 -10.5 -20.5t-25.5 -8.5h-103q-70 0 -119.5 36.5t-49.5 88.5v294h-97v-294q0 -52 -50 -88.5t-120 -36.5h-103q-14 0 -24.5 8.5t-10.5 20.5v29q0 12 10.5 20.5t24.5 8.5h13q26 0 44.5 21t18.5 50v261h-52q-15 0 -26 10.5t-11 26.5v107q0 15 11 26t26 11h594 q16 0 27 -11t11 -26v-107q0 -16 -11 -26.5t-27 -10.5h-51v-261q0 -29 18 -50t44 -21h13q15 0 25.5 -8.5t10.5 -20.5v-29z" />
<glyph unicode="&#x2211;" horiz-adv-x="817" d="M781 100q0 -41 -40 -70.5t-96 -29.5h-473q-56 0 -96 29.5t-40 70.5v75q0 16 11 27t27 11h235q15 0 26 -11t11 -27v-17q0 -29 18.5 -49.5t44.5 -20.5t44 20.5t18 49.5v75q0 15 -11 26t-26 11h-360q-16 0 -27 11t-11 27v192q0 41 40 70.5t96 29.5h473q56 0 96 -29.5 t40 -70.5v-75q0 -16 -11 -26.5t-26 -10.5h-235q-16 0 -27 10.5t-11 26.5v17q0 29 -18 50t-44 21t-44.5 -21t-18.5 -50v-74q0 -16 11 -27t27 -11h360q15 0 26 -11t11 -26v-193z" />
<glyph unicode="&#x221a;" d="M616 -22v-60q0 -37 -30.5 -58.5t-68.5 -21.5h-386q-38 0 -66.5 21t-28.5 59v61q0 38 28.5 59t66.5 21h94l-34 39h-51q-39 0 -71.5 21.5t-32.5 58.5v222q0 37 34.5 58.5t74.5 21.5h174l56 104q9 16 26 16h181q14 0 21 -8t8 -16.5t1 -23.5q0 -13 -8.5 -22.5t-21.5 -9.5 h-127q-40 0 -71 -40h123q40 0 74.5 -21.5t34.5 -58.5v-222q0 -37 -34.5 -58.5t-74.5 -21.5h-231q34 -39 81 -39h160q39 0 69 -21.5t30 -59.5zM376 224v129q0 22 -14 39.5t-36 17.5t-36 -17.5t-14 -39.5v-129q0 -22 14 -39t36 -17t36 17t14 39zM436 -47q0 22 -14 34t-36 12 h-120q-22 0 -36 -12t-14 -34t13.5 -33.5t36.5 -11.5h120q23 0 36.5 11.5t13.5 33.5z" />
<glyph unicode="&#x221e;" horiz-adv-x="747" d="M711 234q0 -33 -32 -56.5t-77 -23.5h-82v74q32 13 32 52v40q0 23 -15 39.5t-35 16.5q-21 0 -35.5 -16.5t-14.5 -39.5v-40q0 -39 31 -52v-74h-26q-52 0 -83 29q-32 -29 -84 -29h-145q-45 0 -77 23.5t-32 56.5v132q0 33 32 56.5t77 23.5h82v-74q-32 -13 -32 -52v-40 q0 -23 15 -39.5t35 -16.5q21 0 35.5 16.5t14.5 39.5v40q0 39 -31 52v74h26q52 0 84 -29q31 29 83 29h145q45 0 77 -23.5t32 -56.5v-132z" />
<glyph unicode="&#x222b;" horiz-adv-x="501" d="M465 729q0 -12 -10.5 -20.5t-25.5 -8.5h-35q-26 0 -44 -21t-18 -50v-762q0 -52 -50 -88.5t-120 -36.5h-91q-14 0 -24.5 8.5t-10.5 20.5v29q0 12 10.5 20.5t24.5 8.5h36q26 0 44 21t18 50v763q0 52 50 88.5t120 36.5h90q15 0 25.5 -8.5t10.5 -21.5v-29z" />
<glyph unicode="&#x2248;" d="M616 230v-150q0 -37 -34.5 -58.5t-74.5 -21.5h-362q-40 0 -74.5 21.5t-34.5 58.5v60q0 13 8.5 21.5t21.5 8.5h180q30 0 30 -43q0 -22 14 -37t36 -15t36 15t14 37v53q0 13 -9.5 22.5t-23.5 9.5h-273q-12 0 -23 11.5t-11 26.5v150q0 37 34.5 58.5t74.5 21.5h362 q40 0 74.5 -21.5t34.5 -58.5v-60q0 -12 -9 -21t-21 -9h-180q-30 0 -30 44q0 22 -14 36.5t-36 14.5t-36 -14.5t-14 -36.5v-50q0 -36 37 -36h263q15 0 27.5 -11.5t12.5 -26.5z" />
<glyph unicode="&#x2260;" horiz-adv-x="497" d="M461 138q0 -16 -11 -27t-26 -11h-195l-13 -35q-5 -14 -19 -20.5t-29 -1.5l-23 8q-15 5 -21.5 19.5t-1.5 28.5v1h-48q-16 0 -27 11t-11 27v56q0 16 11 26.5t27 10.5h95l50 138h-145q-16 0 -27 10.5t-11 26.5v57q0 15 11 26t27 11h192l12 35q5 14 19.5 20.5t28.5 1.5l24 -8 q14 -5 20.5 -19.5t1.5 -28.5v-1h52q15 0 26 -11t11 -26v-57q0 -16 -11 -26.5t-26 -10.5h-99l-49 -138h148q15 0 26 -10.5t11 -26.5v-56z" />
<glyph unicode="&#x2264;" horiz-adv-x="382" d="M339 214q10 -16 6.5 -27t-19.5 -11h-113q-15 0 -34 11q-18 12 -28 27l-115 174l115 175q10 15 28 26q19 11 34 11h113q16 0 19.5 -11t-6.5 -26l-115 -175zM345 29q0 -12 -10 -20.5t-25 -8.5h-169q-15 0 -25.5 8.5t-10.5 20.5v68q0 12 10.5 20.5t25.5 8.5h169 q15 0 25 -8.5t10 -20.5v-68z" />
<glyph unicode="&#x2265;" horiz-adv-x="382" d="M346 388l-115 -174q-8 -14 -28 -27q-17 -11 -34 -11h-113q-15 0 -19 11t6 27l115 174l-115 175q-10 15 -6 26t19 11h113q17 0 34 -11q20 -13 28 -26zM277 29q0 -12 -10.5 -20.5t-25.5 -8.5h-169q-14 0 -24.5 8.5t-10.5 20.5v68q0 12 10.5 20.5t24.5 8.5h169 q15 0 25.5 -8.5t10.5 -20.5v-68z" />
<glyph unicode="&#x25ca;" d="M616 450v-532q0 -37 -34.5 -58.5t-74.5 -21.5h-362q-40 0 -74.5 21.5t-34.5 58.5v30q0 12 9 21t21 9h180q13 0 21.5 -9t8.5 -21q0 -23 14 -40t36 -17t36 17t14 40v102h-231q-40 0 -74.5 21.5t-34.5 58.5v270q0 30 32.5 55t76.5 25h161q44 0 77 -23l23 23h180 q8 0 12.5 -4.5t9 -13t8.5 -12.5zM376 353q0 24 -14.5 40.5t-35.5 16.5t-35.5 -17t-14.5 -40v-196q0 -23 14 -40t36 -17t36 17t14 40v196z" />
<glyph unicode="&#xe000;" horiz-adv-x="480" d="M0 480h480v-480h-480v480z" />
<glyph unicode="&#xfb01;" horiz-adv-x="779" d="M734 30q0 -12 -9 -21t-21 -9h-180q-13 0 -21.5 9t-8.5 21v420q0 12 8.5 21t21.5 9h180q12 0 21 -9t9 -21v-420zM734 556q0 -14 -1 -22t-8 -15t-21 -7h-378q-22 0 -36 -16t-14 -38v-28h129q30 0 30 -45q0 -39 -30 -39h-129v-316q0 -12 -9 -21t-21 -9h-180q-12 0 -21 9 t-9 21v490q0 38 26 59t63 21h579q30 0 30 -44z" />
<glyph unicode="&#xfb02;" horiz-adv-x="799" d="M794 0h-181q-45 0 -77 23.5t-32 56.5v490q0 13 9 21.5t21 8.5h180q13 0 21.5 -8.5t8.5 -21.5v-443q0 -24 15 -40.5t35 -16.5v-70zM475 541q0 -13 -9 -22.5t-21 -9.5h-119q-22 0 -36 -14.5t-14 -36.5v-28h129q12 0 21 -8.5t9 -21.5v-24q0 -13 -9 -21.5t-21 -8.5h-129v-316 q0 -12 -8.5 -21t-21.5 -9h-180q-12 0 -21 9t-9 21v490q0 37 34.5 58.5t74.5 21.5h300q12 0 21 -8.5t9 -21.5v-29z" />
</font>
</defs>
</svg>
